<?xml version="1.0" encoding="UTF-8"?>
<!DOCTYPE svg PUBLIC "-//W3C//DTD SVG 1.1//EN" "http://www.w3.org/Graphics/SVG/1.1/DTD/svg11.dtd">
<svg xmlns="http://www.w3.org/2000/svg" version="1.1" width="512px" height="512px" style="shape-rendering:geometricPrecision; text-rendering:geometricPrecision; image-rendering:optimizeQuality; fill-rule:evenodd; clip-rule:evenodd" xmlns:xlink="http://www.w3.org/1999/xlink">
<g><path style="opacity:0.963" fill="#010100" d="M 511.5,231.5 C 511.5,245.167 511.5,258.833 511.5,272.5C 504.075,332.201 476.408,380.035 428.5,416C 424.928,416.847 421.594,416.347 418.5,414.5C 417.671,411.531 417.505,408.531 418,405.5C 474.05,362.099 500.05,304.765 496,233.5C 486.445,162.51 449.612,111.344 385.5,80C 365.384,71.1836 344.384,65.8503 322.5,64C 274.144,63.0443 225.811,63.3776 177.5,65C 150.626,68.8463 125.626,77.8463 102.5,92C 101.207,92.49 99.8734,92.6567 98.5,92.5C 96.4822,91.1408 94.4822,89.8075 92.5,88.5C 92.1065,85.0703 92.7732,81.9036 94.5,79C 122.053,61.8158 152.053,51.8158 184.5,49C 231.833,48.3333 279.167,48.3333 326.5,49C 409.075,59.5199 466.575,103.02 499,179.5C 505.088,196.514 509.255,213.847 511.5,231.5 Z"/></g>
<g><path style="opacity:1" fill="#f7e968" d="M 418.5,414.5 C 414.5,416.833 410.5,419.167 406.5,421.5C 403.749,418.563 400.415,417.396 396.5,418C 374.441,429.242 351.107,436.242 326.5,439C 278.167,439.667 229.833,439.667 181.5,439C 163.255,436.942 145.922,432.109 129.5,424.5C 74.4255,352.539 53.9255,271.539 68,181.5C 73.6941,150.25 83.8608,120.583 98.5,92.5C 99.8734,92.6567 101.207,92.49 102.5,92C 125.626,77.8463 150.626,68.8463 177.5,65C 225.811,63.3776 274.144,63.0443 322.5,64C 344.384,65.8503 365.384,71.1836 385.5,80C 449.612,111.344 486.445,162.51 496,233.5C 500.05,304.765 474.05,362.099 418,405.5C 417.505,408.531 417.671,411.531 418.5,414.5 Z"/></g>
<g><path style="opacity:1" fill="#f6ac3d" d="M 92.5,88.5 C 94.4822,89.8075 96.4822,91.1408 98.5,92.5C 83.8608,120.583 73.6941,150.25 68,181.5C 53.9255,271.539 74.4255,352.539 129.5,424.5C 118.542,420.02 107.876,415.02 97.5,409.5C 94.2978,410.099 91.2978,411.266 88.5,413C 68.8246,424.84 48.8246,436.173 28.5,447C 18.6895,447.183 14.5228,442.349 16,432.5C 27.0798,412.005 38.4131,391.672 50,371.5C 50.704,369.722 51.204,367.888 51.5,366C 44.6619,354.795 38.1619,343.295 32,331.5C 6.59809,272.688 8.93143,215.022 39,158.5C 50.0504,139.442 64.0504,122.775 81,108.5C 84.0763,104.669 84.2429,100.669 81.5,96.5C 85.7066,94.5646 89.3733,91.8979 92.5,88.5 Z"/></g>
<g><path style="opacity:0.958" fill="#030200" d="M 81.5,96.5 C 84.2429,100.669 84.0763,104.669 81,108.5C 64.0504,122.775 50.0504,139.442 39,158.5C 8.93143,215.022 6.59809,272.688 32,331.5C 38.1619,343.295 44.6619,354.795 51.5,366C 51.204,367.888 50.704,369.722 50,371.5C 38.4131,391.672 27.0798,412.005 16,432.5C 14.5228,442.349 18.6895,447.183 28.5,447C 48.8246,436.173 68.8246,424.84 88.5,413C 91.2978,411.266 94.2978,410.099 97.5,409.5C 107.876,415.02 118.542,420.02 129.5,424.5C 145.922,432.109 163.255,436.942 181.5,439C 229.833,439.667 278.167,439.667 326.5,439C 351.107,436.242 374.441,429.242 396.5,418C 400.415,417.396 403.749,418.563 406.5,421.5C 407.231,425.603 406.231,429.103 403.5,432C 377.138,445.591 349.138,453.258 319.5,455C 276.833,455.667 234.167,455.667 191.5,455C 157.721,452.962 126.221,443.462 97,426.5C 75.7439,438.751 54.2439,450.585 32.5,462C 14.9299,464.556 3.92987,457.389 -0.5,440.5C -0.5,438.167 -0.5,435.833 -0.5,433.5C 0.347016,430.184 1.51368,426.85 3,423.5C 13.3732,404.586 23.8732,385.753 34.5,367C 15.0789,338.333 3.41228,306.833 -0.5,272.5C -0.5,258.833 -0.5,245.167 -0.5,231.5C 5.95647,178.42 28.9565,133.92 68.5,98C 72.4846,94.0825 76.8179,93.5825 81.5,96.5 Z"/></g>
<g><path style="opacity:1" fill="#0c0b05" d="M 149.5,245.5 C 147.379,245.675 145.379,245.341 143.5,244.5C 142.164,242.99 140.997,241.323 140,239.5C 139.333,232.833 139.333,226.167 140,219.5C 143.742,212.352 148.408,211.685 154,217.5C 154.667,225.5 154.667,233.5 154,241.5C 152.603,243.07 151.103,244.404 149.5,245.5 Z"/></g>
<g><path style="opacity:1" fill="#0b0a05" d="M 367.5,244.5 C 365.565,245.15 363.565,245.483 361.5,245.5C 359.897,244.404 358.397,243.07 357,241.5C 356.333,233.5 356.333,225.5 357,217.5C 362.487,211.867 367.154,212.534 371,219.5C 371.667,226.167 371.667,232.833 371,239.5C 370.003,241.323 368.836,242.99 367.5,244.5 Z"/></g>
<g><path style="opacity:1" fill="#050402" d="M 250.5,219.5 C 275.705,220.878 287.205,234.212 285,259.5C 280.074,277.706 268.241,286.206 249.5,285C 231.261,277.703 223.427,264.203 226,244.5C 229.718,231.617 237.885,223.283 250.5,219.5 Z"/></g>
<g><path style="opacity:1" fill="#5a556b" d="M 252.5,234.5 C 264.142,234.808 270.142,240.808 270.5,252.5C 269.988,264.851 263.655,270.684 251.5,270C 240.647,263.436 237.814,254.269 243,242.5C 245.362,238.755 248.528,236.089 252.5,234.5 Z"/></g>
<g><path style="opacity:1" fill="#fe97c0" d="M 143.5,244.5 C 145.379,245.341 147.379,245.675 149.5,245.5C 165.241,248.078 176.074,256.744 182,271.5C 183.306,293.343 173.139,306.51 151.5,311C 132.85,315.215 117.017,310.382 104,296.5C 93.2488,277.739 97.0822,262.572 115.5,251C 124.306,246.605 133.639,244.439 143.5,244.5 Z"/></g>
<g><path style="opacity:1" fill="#fe97c0" d="M 367.5,244.5 C 382.518,244.113 395.351,249.113 406,259.5C 417.612,277.24 414.779,292.406 397.5,305C 375.431,316.805 354.931,314.639 336,298.5C 324.5,281.987 326.333,267.154 341.5,254C 347.455,249.514 354.122,246.681 361.5,245.5C 363.565,245.483 365.565,245.15 367.5,244.5 Z"/></g>
</svg>
