<?xml version="1.0" encoding="UTF-8"?>
<!DOCTYPE svg PUBLIC "-//W3C//DTD SVG 1.1//EN" "http://www.w3.org/Graphics/SVG/1.1/DTD/svg11.dtd">
<svg xmlns="http://www.w3.org/2000/svg" version="1.1" width="512px" height="512px" style="shape-rendering:geometricPrecision; text-rendering:geometricPrecision; image-rendering:optimizeQuality; fill-rule:evenodd; clip-rule:evenodd" xmlns:xlink="http://www.w3.org/1999/xlink">
<g><path style="opacity:0.982" fill="#030202" d="M 303.5,-0.5 C 316.5,-0.5 329.5,-0.5 342.5,-0.5C 422.936,11.4284 476.769,55.7618 504,132.5C 507.269,144.482 509.769,156.482 511.5,168.5C 511.5,181.5 511.5,194.5 511.5,207.5C 501.143,280.345 462.476,331.845 395.5,362C 363.552,420.608 316.885,463.275 255.5,490C 235.326,495.089 223.66,487.422 220.5,467C 222.007,458.971 223.674,450.971 225.5,443C 225.435,438.265 223.102,435.265 218.5,434C 215.581,433.448 212.914,434.115 210.5,436C 194.344,446.135 177.678,455.468 160.5,464C 156.259,465.188 152.592,464.355 149.5,461.5C 148.553,456.777 149.886,452.944 153.5,450C 171.822,440.507 189.822,430.507 207.5,420C 222.335,416.003 233.169,420.836 240,434.5C 242.087,443.828 241.087,452.828 237,461.5C 234.631,471.451 238.465,476.285 248.5,476C 285.839,459.584 318.339,436.417 346,406.5C 348.717,403.29 351.217,399.956 353.5,396.5C 360.425,388.175 366.758,379.341 372.5,370C 349.162,375.013 325.496,376.68 301.5,375C 285.109,372.908 269.275,368.741 254,362.5C 244.866,366.652 235.699,370.652 226.5,374.5C 198.495,385.89 169.828,395.39 140.5,403C 125.982,404.495 116.482,398.328 112,384.5C 111.333,380.5 111.333,376.5 112,372.5C 118.87,344.056 128.037,316.389 139.5,289.5C 143.262,280.717 146.928,271.884 150.5,263C 133.189,220.144 130.856,176.478 143.5,132C 143.15,130.743 142.483,130.409 141.5,131C 133.01,136.664 124.677,142.497 116.5,148.5C 80.666,177.471 53.4993,213.138 35,255.5C 34.7152,265.535 39.5486,269.369 49.5,267C 56.8726,264.578 64.3726,262.745 72,261.5C 90.6791,263.511 99.0124,273.844 97,292.5C 87.9335,308.964 78.6001,325.297 69,341.5C 45.2714,384.957 27.1048,430.623 14.5,478.5C 15.3932,489.059 21.0598,495.059 31.5,496.5C 62.673,488.498 93.0063,477.998 122.5,465C 126.946,464.057 130.279,465.557 132.5,469.5C 133.648,473.227 132.648,476.394 129.5,479C 100.158,491.945 70.1585,502.778 39.5,511.5C 34.1667,511.5 28.8333,511.5 23.5,511.5C 11.8333,507.167 3.83333,499.167 -0.5,487.5C -0.5,482.167 -0.5,476.833 -0.5,471.5C 12.6427,424.594 30.8094,379.594 54,336.5C 63.338,319.681 72.838,303.015 82.5,286.5C 81.7249,280.89 78.5582,277.89 73,277.5C 63.3281,279.502 53.6615,281.502 44,283.5C 23.5782,280.34 15.9115,268.674 21,248.5C 48.2713,185.897 92.1047,138.73 152.5,107C 159.424,92.4729 168.091,79.1396 178.5,67C 181.592,66.2642 184.592,66.4309 187.5,67.5C 190.036,70.0072 190.869,73.0072 190,76.5C 182.046,86.2323 175.213,96.7323 169.5,108C 174.666,111.354 180.332,112.354 186.5,111C 199.569,107.586 212.569,103.919 225.5,100C 232.194,96.4581 236.361,90.9581 238,83.5C 240.871,72.1471 243.871,60.8138 247,49.5C 247.937,44.5967 247.27,39.9301 245,35.5C 242.353,34.5363 239.853,35.0363 237.5,37C 227.893,42.9421 218.56,49.2754 209.5,56C 206.007,56.8693 203.007,56.036 200.5,53.5C 199.099,50.123 199.265,46.7897 201,43.5C 230.94,19.019 265.106,4.35234 303.5,-0.5 Z"/></g>
<g><path style="opacity:1" fill="#4a72a4" d="M 315.5,14.5 C 344.164,13.4437 371.498,18.9437 397.5,31C 404.202,34.3453 410.535,38.1786 416.5,42.5C 413.751,47.8851 409.418,51.3851 403.5,53C 391.795,55.8428 380.129,58.8428 368.5,62C 361.169,63.5984 354.502,62.2651 348.5,58C 338.667,48.1667 328.833,38.3333 319,28.5C 316.294,24.215 315.127,19.5483 315.5,14.5 Z"/></g>
<g><path style="opacity:1" fill="#d1d1fd" d="M 292.5,16.5 C 295.167,16.5 297.833,16.5 300.5,16.5C 300.696,24.5859 303.196,31.9193 308,38.5C 320.655,51.155 333.155,63.655 345.5,76C 341.757,89.1364 338.091,102.303 334.5,115.5C 321.265,117.225 308.265,120.059 295.5,124C 289.358,125.404 283.691,127.904 278.5,131.5C 267.639,121.472 257.305,110.972 247.5,100C 252.874,84.005 257.708,67.8383 262,51.5C 263.365,42.9616 261.865,34.9616 257.5,27.5C 268.963,22.7879 280.63,19.1212 292.5,16.5 Z"/></g>
<g><path style="opacity:0.999" fill="#4a71a4" d="M 187.5,67.5 C 191.833,62.8333 196.167,58.1667 200.5,53.5C 203.007,56.036 206.007,56.8693 209.5,56C 218.56,49.2754 227.893,42.9421 237.5,37C 239.853,35.0363 242.353,34.5363 245,35.5C 247.27,39.9301 247.937,44.5967 247,49.5C 243.871,60.8138 240.871,72.1471 238,83.5C 236.361,90.9581 232.194,96.4581 225.5,100C 212.569,103.919 199.569,107.586 186.5,111C 180.332,112.354 174.666,111.354 169.5,108C 175.213,96.7323 182.046,86.2323 190,76.5C 190.869,73.0072 190.036,70.0072 187.5,67.5 Z"/></g>
<g><path style="opacity:1" fill="#eceafd" d="M 428.5,51.5 C 440.748,59.4132 451.082,69.4132 459.5,81.5C 453.02,86.1494 448.187,92.1494 445,99.5C 439.437,116.154 435.604,133.154 433.5,150.5C 419.614,154.413 405.614,158.08 391.5,161.5C 378.98,145.814 364.98,131.647 349.5,119C 352.861,105.22 356.528,91.5538 360.5,78C 378.545,75.1912 396.211,70.8579 413.5,65C 419.94,62.0575 424.94,57.5575 428.5,51.5 Z"/></g>
<g><path style="opacity:1" fill="#4a71a4" d="M 467.5,94.5 C 468.496,94.4142 469.329,94.7476 470,95.5C 489.132,126.068 497.965,159.401 496.5,195.5C 491.382,196.111 486.715,194.944 482.5,192C 472.667,182.167 462.833,172.333 453,162.5C 448.784,156.119 447.451,149.119 449,141.5C 452,130.167 455,118.833 458,107.5C 459.723,102.03 462.89,97.6965 467.5,94.5 Z"/></g>
<g><path style="opacity:1" fill="#eceafd" d="M 234.5,111.5 C 235.675,111.281 236.675,111.614 237.5,112.5C 247.167,122.833 257.167,132.833 267.5,142.5C 265.413,145.673 263.579,149.006 262,152.5C 256.438,167.737 253.272,183.404 252.5,199.5C 238.231,202.721 224.064,206.388 210,210.5C 198.564,197.062 186.398,184.229 173.5,172C 166.922,167.354 159.588,164.854 151.5,164.5C 153.282,149.827 157.282,135.827 163.5,122.5C 171.092,126.242 179.092,127.409 187.5,126C 201.251,122.584 214.917,118.918 228.5,115C 230.727,114.059 232.727,112.892 234.5,111.5 Z"/></g>
<g><path style="opacity:1" fill="#fc445e" d="M 139.5,289.5 C 125.953,266.361 117.453,241.361 114,214.5C 111.323,192.309 112.156,170.309 116.5,148.5C 124.677,142.497 133.01,136.664 141.5,131C 142.483,130.409 143.15,130.743 143.5,132C 130.856,176.478 133.189,220.144 150.5,263C 146.928,271.884 143.262,280.717 139.5,289.5 Z"/></g>
<g><path style="opacity:1" fill="#4a72a5" d="M 323.5,131.5 C 333.553,130.428 342.553,132.928 350.5,139C 359.031,147.197 367.198,155.697 375,164.5C 379.123,170.955 380.456,177.955 379,185.5C 376.078,198.859 372.078,211.859 367,224.5C 363.749,228.422 359.916,231.588 355.5,234C 345.242,237.298 334.908,240.298 324.5,243C 313.585,245.47 303.918,243.136 295.5,236C 287.302,228.137 279.469,219.97 272,211.5C 267.736,203.687 266.403,195.354 268,186.5C 270.511,176.789 273.178,167.123 276,157.5C 279.447,150.386 284.614,144.886 291.5,141C 302.309,137.893 312.976,134.726 323.5,131.5 Z"/></g>
<g><path style="opacity:1" fill="#fd6d80" d="M 116.5,148.5 C 112.156,170.309 111.323,192.309 114,214.5C 117.453,241.361 125.953,266.361 139.5,289.5C 128.037,316.389 118.87,344.056 112,372.5C 111.333,376.5 111.333,380.5 112,384.5C 116.482,398.328 125.982,404.495 140.5,403C 169.828,395.39 198.495,385.89 226.5,374.5C 266.236,395.932 308.57,403.266 353.5,396.5C 351.217,399.956 348.717,403.29 346,406.5C 318.339,436.417 285.839,459.584 248.5,476C 238.465,476.285 234.631,471.451 237,461.5C 241.087,452.828 242.087,443.828 240,434.5C 233.169,420.836 222.335,416.003 207.5,420C 189.822,430.507 171.822,440.507 153.5,450C 149.886,452.944 148.553,456.777 149.5,461.5C 143.708,463.896 138.041,466.563 132.5,469.5C 130.279,465.557 126.946,464.057 122.5,465C 93.0063,477.998 62.673,488.498 31.5,496.5C 21.0598,495.059 15.3932,489.059 14.5,478.5C 27.1048,430.623 45.2714,384.957 69,341.5C 78.6001,325.297 87.9335,308.964 97,292.5C 99.0124,273.844 90.6791,263.511 72,261.5C 64.3726,262.745 56.8726,264.578 49.5,267C 39.5486,269.369 34.7152,265.535 35,255.5C 53.4993,213.138 80.666,177.471 116.5,148.5 Z"/></g>
<g><path style="opacity:1" fill="#d1d1fd" d="M 432.5,165.5 C 434.199,165.34 435.866,165.506 437.5,166C 448.435,178.938 460.102,191.271 472.5,203C 478.897,208.188 486.231,210.688 494.5,210.5C 492.737,224.884 489.404,238.884 484.5,252.5C 479.775,251.649 475.108,250.482 470.5,249C 466.833,248.333 463.167,248.333 459.5,249C 443.072,253.082 426.906,257.916 411,263.5C 400.375,253.876 390.041,243.876 380,233.5C 387.313,215.254 392.313,196.254 395,176.5C 407.567,172.737 420.067,169.07 432.5,165.5 Z"/></g>
<g><path style="opacity:1" fill="#4a71a4" d="M 150.5,179.5 C 155.725,179.297 160.392,180.797 164.5,184C 174.333,193.833 184.167,203.667 194,213.5C 198.129,219.199 199.462,225.532 198,232.5C 194.919,244.569 191.586,256.569 188,268.5C 186.349,274.138 183.016,278.471 178,281.5C 157.611,250.618 148.444,216.618 150.5,179.5 Z"/></g>
<g><path style="opacity:1" fill="#d1d1fd" d="M 253.5,213.5 C 263.783,225.292 274.783,236.792 286.5,248C 290.374,250.432 294.041,253.098 297.5,256C 293.129,269.652 289.462,283.486 286.5,297.5C 269.515,299.745 252.849,303.579 236.5,309C 228.246,311.917 221.746,317.083 217,324.5C 205.5,315.667 195.333,305.5 186.5,294C 193.16,289.674 197.993,283.841 201,276.5C 206.509,259.477 210.676,242.143 213.5,224.5C 227.078,221.357 240.411,217.69 253.5,213.5 Z"/></g>
<g><path style="opacity:1" fill="#eceafd" d="M 366.5,244.5 C 367.552,244.351 368.552,244.517 369.5,245C 379.681,255.014 389.681,265.181 399.5,275.5C 396.99,279.525 395.157,283.858 394,288.5C 391,299.833 388,311.167 385,322.5C 383.808,331.167 384.974,339.5 388.5,347.5C 385.495,349.671 382.161,351.171 378.5,352C 367.976,355.233 357.31,357.733 346.5,359.5C 346.569,351.302 344.069,343.968 339,337.5C 326.771,324.602 313.938,312.436 300.5,301C 304.397,286.912 308.064,272.745 311.5,258.5C 320.381,258.947 329.047,257.78 337.5,255C 344.431,252.801 351.431,250.801 358.5,249C 361.391,247.726 364.058,246.226 366.5,244.5 Z"/></g>
<g><path style="opacity:1" fill="#4971a3" d="M 461.5,263.5 C 467.401,262.743 472.734,264.076 477.5,267.5C 460.443,300.393 435.443,324.893 402.5,341C 399.754,335.484 398.921,329.651 400,323.5C 403.156,312.544 406.156,301.544 409,290.5C 410.922,283.472 415.089,278.306 421.5,275C 434.967,271.138 448.301,267.305 461.5,263.5 Z"/></g>
<g><path style="opacity:1" fill="#fcc64a" d="M 209.5,365.5 C 185.909,349.575 165.575,330.241 148.5,307.5C 151.435,299.031 154.769,290.698 158.5,282.5C 159.002,281.479 159.668,281.312 160.5,282C 178.433,312.6 202.933,336.434 234,353.5C 234.456,354.744 233.956,355.577 232.5,356C 224.808,359.182 217.141,362.349 209.5,365.5 Z"/></g>
<g><path style="opacity:1" fill="#f9e75d" d="M 148.5,307.5 C 165.575,330.241 185.909,349.575 209.5,365.5C 185.177,374.79 160.344,382.456 135,388.5C 127.399,386.306 124.733,381.306 127,373.5C 132.643,350.898 139.81,328.898 148.5,307.5 Z"/></g>
<g><path style="opacity:1" fill="#4a71a4" d="M 278.5,312.5 C 285.36,311.966 291.694,313.466 297.5,317C 307.333,326.833 317.167,336.667 327,346.5C 330.203,350.608 331.703,355.275 331.5,360.5C 294.396,362.559 260.396,353.392 229.5,333C 232.312,328.258 236.312,324.925 241.5,323C 253.996,319.63 266.329,316.13 278.5,312.5 Z"/></g>
<g><path style="opacity:1" fill="#fc445e" d="M 353.5,396.5 C 308.57,403.266 266.236,395.932 226.5,374.5C 235.699,370.652 244.866,366.652 254,362.5C 269.275,368.741 285.109,372.908 301.5,375C 325.496,376.68 349.162,375.013 372.5,370C 366.758,379.341 360.425,388.175 353.5,396.5 Z"/></g>
</svg>
