<?xml version="1.0" encoding="UTF-8"?>
<!DOCTYPE svg PUBLIC "-//W3C//DTD SVG 1.1//EN" "http://www.w3.org/Graphics/SVG/1.1/DTD/svg11.dtd">
<svg xmlns="http://www.w3.org/2000/svg" version="1.1" width="512px" height="512px" style="shape-rendering:geometricPrecision; text-rendering:geometricPrecision; image-rendering:optimizeQuality; fill-rule:evenodd; clip-rule:evenodd" xmlns:xlink="http://www.w3.org/1999/xlink">
<g><path style="opacity:0.977" fill="#010101" d="M 434.5,10.5 C 433.892,13.9583 431.892,16.4583 428.5,18C 366.5,18.3333 304.5,18.6667 242.5,19C 234,22.1667 228.167,28 225,36.5C 224.008,146.543 224.342,256.543 226,366.5C 229.429,374.929 235.596,380.096 244.5,382C 321.5,382.667 398.5,382.667 475.5,382C 485.165,380.104 491.665,374.604 495,365.5C 496.658,256.21 496.992,146.876 496,37.5C 493.167,28 487,21.8333 477.5,19C 471.833,18.6667 466.167,18.3333 460.5,18C 457.211,16.5897 455.544,14.0897 455.5,10.5C 455.081,7.67546 456.081,5.50879 458.5,4C 484.56,-0.648117 502.226,9.18522 511.5,33.5C 511.5,144.5 511.5,255.5 511.5,366.5C 506.824,383.338 495.824,393.504 478.5,397C 448.5,397.333 418.5,397.667 388.5,398C 355.167,431.333 321.833,464.667 288.5,498C 278.001,506.625 266.001,509.625 252.5,507C 246.178,505.672 240.511,503.005 235.5,499C 230,493.5 224.5,488 219,482.5C 217.016,478.972 217.183,475.639 219.5,472.5C 222.594,470.653 225.928,470.153 229.5,471C 234.833,476.333 240.167,481.667 245.5,487C 257.328,494.773 268.661,494.107 279.5,485C 299.368,465.299 319.035,445.465 338.5,425.5C 347.833,416.833 356.833,407.833 365.5,398.5C 366.043,398.44 366.376,398.107 366.5,397.5C 325.505,396.5 284.505,396.167 243.5,396.5C 221.245,391.91 209.912,378.243 209.5,355.5C 200.082,353.812 190.749,351.812 181.5,349.5C 170.246,345.414 162.413,337.747 158,326.5C 150.062,292.142 142.895,257.642 136.5,223C 140.117,196.885 155.117,184.385 181.5,185.5C 189.281,187.657 197.281,189.324 205.5,190.5C 206.568,191.434 207.901,191.768 209.5,191.5C 209.832,149.663 209.499,107.997 208.5,66.5C 200.222,62.4243 191.889,62.591 183.5,67C 182.619,67.7083 181.953,68.5416 181.5,69.5C 127.917,121.583 74.75,174.249 22,227.5C 12.8221,238.307 12.1554,249.641 20,261.5C 82.3333,323.833 144.667,386.167 207,448.5C 207.847,452.072 207.347,455.406 205.5,458.5C 202.318,460.956 198.985,461.123 195.5,459C 133,396.5 70.5,334 8,271.5C 4.06067,266.288 1.22734,260.621 -0.5,254.5C -0.5,248.5 -0.5,242.5 -0.5,236.5C 1.92344,229.66 5.42344,223.327 10,217.5C 63.1667,164.333 116.333,111.167 169.5,58C 180.902,48.573 193.735,45.7397 208,49.5C 207.288,26.387 217.788,11.2203 239.5,4C 303.167,3.33333 366.833,3.33333 430.5,4C 432.734,5.63787 434.067,7.80453 434.5,10.5 Z"/></g>
<g><path style="opacity:1" fill="#eeecfe" d="M 434.5,10.5 C 441.5,10.5 448.5,10.5 455.5,10.5C 455.544,14.0897 457.211,16.5897 460.5,18C 466.167,18.3333 471.833,18.6667 477.5,19C 487,21.8333 493.167,28 496,37.5C 496.992,146.876 496.658,256.21 495,365.5C 491.665,374.604 485.165,380.104 475.5,382C 398.5,382.667 321.5,382.667 244.5,382C 235.596,380.096 229.429,374.929 226,366.5C 224.342,256.543 224.008,146.543 225,36.5C 228.167,28 234,22.1667 242.5,19C 304.5,18.6667 366.5,18.3333 428.5,18C 431.892,16.4583 433.892,13.9583 434.5,10.5 Z"/></g>
<g><path style="opacity:1" fill="#060506" d="M 286.5,71.5 C 285.327,80.0043 280.827,82.3377 273,78.5C 271.711,75.6492 271.211,72.6492 271.5,69.5C 277.562,51.9759 288.895,47.4759 305.5,56C 312.094,61.3521 314.594,68.1854 313,76.5C 309.644,80.9483 305.644,81.6149 301,78.5C 299.25,75.7536 298.25,72.7536 298,69.5C 293.187,65.1656 289.354,65.8322 286.5,71.5 Z"/></g>
<g><path style="opacity:1" fill="#040404" d="M 433.5,73.5 C 431.893,80.212 427.893,82.212 421.5,79.5C 420.442,78.3998 419.608,77.0664 419,75.5C 418.333,69.8333 418.333,64.1667 419,58.5C 421.513,54.7885 425.013,53.6218 429.5,55C 431,55.8333 432.167,57 433,58.5C 433.499,63.4889 433.666,68.4889 433.5,73.5 Z"/></g>
<g><path style="opacity:1" fill="#9da1e2" d="M 208.5,66.5 C 208.5,107.833 208.5,149.167 208.5,190.5C 207.5,190.5 206.5,190.5 205.5,190.5C 197.281,189.324 189.281,187.657 181.5,185.5C 181.5,146.833 181.5,108.167 181.5,69.5C 181.953,68.5416 182.619,67.7083 183.5,67C 191.889,62.591 200.222,62.4243 208.5,66.5 Z"/></g>
<g><path style="opacity:1" fill="#060607" d="M 375.5,65.5 C 383.357,66.1648 386.19,70.1648 384,77.5C 375.523,86.869 365.023,90.369 352.5,88C 345.432,85.8849 339.932,81.7182 336,75.5C 335.501,68.0115 339.001,65.1782 346.5,67C 356.691,75.9588 366.358,75.4588 375.5,65.5 Z"/></g>
<g><path style="opacity:1" fill="#6d709d" d="M 208.5,66.5 C 209.499,107.997 209.832,149.663 209.5,191.5C 207.901,191.768 206.568,191.434 205.5,190.5C 206.5,190.5 207.5,190.5 208.5,190.5C 208.5,149.167 208.5,107.833 208.5,66.5 Z"/></g>
<g><path style="opacity:1" fill="#d2d2fd" d="M 181.5,69.5 C 181.5,108.167 181.5,146.833 181.5,185.5C 155.117,184.385 140.117,196.885 136.5,223C 142.895,257.642 150.062,292.142 158,326.5C 162.413,337.747 170.246,345.414 181.5,349.5C 180.273,380.226 192.939,403.059 219.5,418C 225.697,420.465 232.031,422.465 238.5,424C 272.003,424.168 305.336,424.668 338.5,425.5C 319.035,445.465 299.368,465.299 279.5,485C 268.661,494.107 257.328,494.773 245.5,487C 240.167,481.667 234.833,476.333 229.5,471C 225.928,470.153 222.594,470.653 219.5,472.5C 215.167,467.5 210.5,462.833 205.5,458.5C 207.347,455.406 207.847,452.072 207,448.5C 144.667,386.167 82.3333,323.833 20,261.5C 12.1554,249.641 12.8221,238.307 22,227.5C 74.75,174.249 127.917,121.583 181.5,69.5 Z"/></g>
<g><path style="opacity:1" fill="#eca1ab" d="M 271.5,69.5 C 271.211,72.6492 271.711,75.6492 273,78.5C 280.827,82.3377 285.327,80.0043 286.5,71.5C 286.5,72.5 286.5,73.5 286.5,74.5C 303.142,78.6133 309.642,88.9466 306,105.5C 301.494,113.677 294.661,118.844 285.5,121C 268.091,124.769 255.258,118.936 247,103.5C 245.201,86.1174 253.034,76.1174 270.5,73.5C 270.232,71.901 270.566,70.5676 271.5,69.5 Z"/></g>
<g><path style="opacity:1" fill="#eca1ab" d="M 433.5,73.5 C 448.423,70.4203 460.923,74.4203 471,85.5C 478.03,103.936 471.863,115.769 452.5,121C 438.324,124.163 426.49,120.33 417,109.5C 411.239,98.3349 412.739,88.3349 421.5,79.5C 427.893,82.212 431.893,80.212 433.5,73.5 Z"/></g>
<g><path style="opacity:1" fill="#030304" d="M 407.5,166.5 C 406.903,171.294 407.57,175.627 409.5,179.5C 435.767,187.351 448.267,205.017 447,232.5C 439.096,262.449 419.762,275.783 389,272.5C 389.475,282.675 390.809,292.675 393,302.5C 391.601,308.9 387.767,313.066 381.5,315C 366.833,315.667 352.167,315.667 337.5,315C 331.401,311.891 328.067,306.891 327.5,300C 330.109,291.006 331.775,281.84 332.5,272.5C 311.734,276.304 294.901,269.971 282,253.5C 266.994,226.366 271.828,203.533 296.5,185C 301.37,181.728 306.703,179.894 312.5,179.5C 311.809,152.013 324.475,134.179 350.5,126C 378.719,123.021 397.552,134.854 407,161.5C 407.494,163.134 407.66,164.801 407.5,166.5 Z"/></g>
<g><path style="opacity:1" fill="#6070a2" d="M 352.5,140.5 C 371.549,138.269 384.716,145.935 392,163.5C 392.06,171.936 392.727,180.269 394,188.5C 395.543,190.378 397.376,191.878 399.5,193C 421.486,195.978 432.319,208.478 432,230.5C 426.43,251.21 412.93,260.377 391.5,258C 388.253,256.541 384.92,255.374 381.5,254.5C 377.719,255.142 374.885,257.142 373,260.5C 372.638,273.796 374.471,286.796 378.5,299.5C 366.5,300.833 354.5,300.833 342.5,299.5C 347.047,286.521 348.547,273.188 347,259.5C 345.091,256.586 342.425,254.919 339,254.5C 321.347,262.603 306.347,259.269 294,244.5C 283.943,225.229 287.777,209.395 305.5,197C 310.522,194.437 315.855,193.104 321.5,193C 326.509,190.816 328.842,186.983 328.5,181.5C 325.448,161.26 333.448,147.593 352.5,140.5 Z"/></g>
<g><path style="opacity:1" fill="#77767e" d="M 407.5,166.5 C 408.22,170.73 408.887,175.063 409.5,179.5C 407.57,175.627 406.903,171.294 407.5,166.5 Z"/></g>
<g><path style="opacity:1" fill="#db5b6c" d="M 182.5,201.5 C 181.501,244.997 181.168,288.663 181.5,332.5C 174.935,328.397 171.101,322.397 170,314.5C 163.62,284.365 157.454,254.199 151.5,224C 152.299,212.736 157.965,205.07 168.5,201C 173.352,200.185 178.019,200.352 182.5,201.5 Z"/></g>
<g><path style="opacity:1" fill="#d4364c" d="M 182.5,201.5 C 191.225,202.912 199.892,204.578 208.5,206.5C 208.5,250.833 208.5,295.167 208.5,339.5C 207.5,339.5 206.5,339.5 205.5,339.5C 199.748,338.783 194.081,337.616 188.5,336C 185.826,335.33 183.493,334.163 181.5,332.5C 181.168,288.663 181.501,244.997 182.5,201.5 Z"/></g>
<g><path style="opacity:1" fill="#932534" d="M 208.5,206.5 C 209.499,250.997 209.832,295.664 209.5,340.5C 207.901,340.768 206.568,340.434 205.5,339.5C 206.5,339.5 207.5,339.5 208.5,339.5C 208.5,295.167 208.5,250.833 208.5,206.5 Z"/></g>
<g><path style="opacity:1" fill="#9da1e2" d="M 181.5,349.5 C 190.749,351.812 200.082,353.812 209.5,355.5C 209.912,378.243 221.245,391.91 243.5,396.5C 284.167,397.167 324.833,397.833 365.5,398.5C 356.833,407.833 347.833,416.833 338.5,425.5C 305.336,424.668 272.003,424.168 238.5,424C 232.031,422.465 225.697,420.465 219.5,418C 192.939,403.059 180.273,380.226 181.5,349.5 Z"/></g>
<g><path style="opacity:1" fill="#4b4d6b" d="M 243.5,396.5 C 284.505,396.167 325.505,396.5 366.5,397.5C 366.376,398.107 366.043,398.44 365.5,398.5C 324.833,397.833 284.167,397.167 243.5,396.5 Z"/></g>
</svg>
