<?xml version="1.0" encoding="UTF-8"?>
<!DOCTYPE svg PUBLIC "-//W3C//DTD SVG 1.1//EN" "http://www.w3.org/Graphics/SVG/1.1/DTD/svg11.dtd">
<svg xmlns="http://www.w3.org/2000/svg" version="1.1" width="512px" height="512px" style="shape-rendering:geometricPrecision; text-rendering:geometricPrecision; image-rendering:optimizeQuality; fill-rule:evenodd; clip-rule:evenodd" xmlns:xlink="http://www.w3.org/1999/xlink">
<g><path style="opacity:0.977" fill="#020303" d="M 511.5,159.5 C 511.5,174.833 511.5,190.167 511.5,205.5C 505.148,226.463 490.981,238.463 469,241.5C 468.667,306.167 468.333,370.833 468,435.5C 464.725,459.434 452.225,476.601 430.5,487C 425.556,488.407 421.556,487.241 418.5,483.5C 418.248,480.68 418.748,478.014 420,475.5C 433.274,469.892 442.941,460.559 449,447.5C 451.103,442.698 452.269,437.698 452.5,432.5C 453.832,369.665 453.832,306.665 452.5,243.5C 451.893,243.624 451.56,243.957 451.5,244.5C 428.529,248.273 405.529,251.94 382.5,255.5C 374.833,256.167 367.167,256.833 359.5,257.5C 359.214,276.53 358.381,295.53 357,314.5C 347.388,337.056 330.555,345.389 306.5,339.5C 305.791,338.596 304.791,338.263 303.5,338.5C 303.168,384.67 303.501,430.67 304.5,476.5C 333.835,476.333 363.169,476.5 392.5,477C 396.518,477.863 398.518,480.363 398.5,484.5C 398.673,488.17 397.007,490.67 393.5,492C 296.167,492.667 198.833,492.667 101.5,492C 68.6985,487.532 49.1985,469.032 43,436.5C 42.6667,371.5 42.3333,306.5 42,241.5C 20.0187,238.463 5.85207,226.463 -0.5,205.5C -0.5,190.167 -0.5,174.833 -0.5,159.5C 5.50244,140.507 18.5024,130.507 38.5,129.5C 46.7536,130.25 54.9203,131.584 63,133.5C 63.8333,133.167 64.6667,132.833 65.5,132.5C 57.1254,110.619 57.6254,88.9527 67,67.5C 69.7966,63.7784 73.2966,62.7784 77.5,64.5C 79.4613,66.2916 80.7946,68.4582 81.5,71C 71.7529,91.7775 72.2529,112.277 83,132.5C 86.9088,138.927 92.7421,141.594 100.5,140.5C 111.044,142.043 121.71,143.71 132.5,145.5C 144.796,141.957 156.796,137.624 168.5,132.5C 162.146,126.478 155.813,120.478 149.5,114.5C 143.821,108.658 137.654,103.325 131,98.5C 127.675,89.3188 130.842,85.4855 140.5,87C 149.334,94.3358 158.001,101.836 166.5,109.5C 172.793,115.292 178.96,121.292 185,127.5C 187.567,126.132 190.067,124.632 192.5,123C 200.025,113.643 207.358,104.143 214.5,94.5C 210.641,87.4273 206.307,80.7606 201.5,74.5C 194.116,62.2818 184.783,51.7818 173.5,43C 147.287,29.7133 122.62,32.0466 99.5,50C 95.8971,50.843 92.5637,50.343 89.5,48.5C 88.174,45.1972 88.174,41.8639 89.5,38.5C 117.788,16.1731 148.121,13.0065 180.5,29C 189.584,34.7483 197.417,41.915 204,50.5C 211.42,60.0885 218.253,70.0885 224.5,80.5C 237.708,65.6992 253.708,61.8659 272.5,69C 277.798,72.1376 282.465,75.971 286.5,80.5C 295.772,64.7225 306.772,50.2225 319.5,37C 351.62,13.0591 384.287,12.3925 417.5,35C 449.429,60.9598 458.763,93.4598 445.5,132.5C 446.333,132.833 447.167,133.167 448,133.5C 456.08,131.584 464.246,130.25 472.5,129.5C 492.498,130.507 505.498,140.507 511.5,159.5 Z"/></g>
<g><path style="opacity:1" fill="#8de0df" d="M 201.5,74.5 C 193.524,84.8146 185.524,95.148 177.5,105.5C 173.961,107.235 170.294,108.568 166.5,109.5C 158.001,101.836 149.334,94.3358 140.5,87C 130.842,85.4855 127.675,89.3188 131,98.5C 137.654,103.325 143.821,108.658 149.5,114.5C 149.423,115.75 148.756,116.583 147.5,117C 137.929,120.079 128.596,123.745 119.5,128C 114.245,131.251 109.578,135.251 105.5,140C 103.866,140.494 102.199,140.66 100.5,140.5C 92.7421,141.594 86.9088,138.927 83,132.5C 72.2529,112.277 71.7529,91.7775 81.5,71C 80.7946,68.4582 79.4613,66.2916 77.5,64.5C 80.3529,58.3128 84.3529,52.9795 89.5,48.5C 92.5637,50.343 95.8971,50.843 99.5,50C 122.62,32.0466 147.287,29.7133 173.5,43C 184.783,51.7818 194.116,62.2818 201.5,74.5 Z"/></g>
<g><path style="opacity:1" fill="#8de0df" d="M 408.5,140.5 C 407.448,140.649 406.448,140.483 405.5,140C 401.473,135.31 396.806,131.31 391.5,128C 382.99,124.274 374.323,120.941 365.5,118C 363.456,117.502 362.122,116.335 361.5,114.5C 367.179,108.658 373.346,103.325 380,98.5C 383.325,89.3188 380.158,85.4855 370.5,87C 361.666,94.3358 352.999,101.836 344.5,109.5C 341.06,108.909 337.727,107.909 334.5,106.5C 326.143,95.8146 317.809,85.1479 309.5,74.5C 317.965,60.5354 328.965,49.0354 342.5,40C 376.865,28.2664 404.698,37.0997 426,66.5C 439.963,89.5831 439.963,112.583 426,135.5C 425.167,136.333 424.333,137.167 423.5,138C 418.565,139.267 413.565,140.1 408.5,140.5 Z"/></g>
<g><path style="opacity:1" fill="#69d4d1" d="M 201.5,74.5 C 206.307,80.7606 210.641,87.4273 214.5,94.5C 207.358,104.143 200.025,113.643 192.5,123C 190.067,124.632 187.567,126.132 185,127.5C 178.96,121.292 172.793,115.292 166.5,109.5C 170.294,108.568 173.961,107.235 177.5,105.5C 185.524,95.148 193.524,84.8146 201.5,74.5 Z"/></g>
<g><path style="opacity:1" fill="#69d4d1" d="M 309.5,74.5 C 317.809,85.1479 326.143,95.8146 334.5,106.5C 337.727,107.909 341.06,108.909 344.5,109.5C 338.229,115.27 332.062,121.27 326,127.5C 323.417,126.126 320.917,124.626 318.5,123C 310.975,113.643 303.642,104.143 296.5,94.5C 300.359,87.4273 304.693,80.7606 309.5,74.5 Z"/></g>
<g><path style="opacity:1" fill="#f4e971" d="M 364.5,214.5 C 363.314,199.809 355.314,191.309 340.5,189C 335.448,188.274 330.448,188.441 325.5,189.5C 325.666,184.489 325.499,179.489 325,174.5C 322.442,170.788 318.942,169.622 314.5,171C 312.667,171.5 311.5,172.667 311,174.5C 310.333,180.167 310.333,185.833 311,191.5C 311.662,192.984 312.496,194.317 313.5,195.5C 300.738,211.543 303.738,224.043 322.5,233C 333.731,237.008 344.398,235.842 354.5,229.5C 349.99,236.193 346.823,243.526 345,251.5C 344.441,270.504 343.774,289.504 343,308.5C 338.34,322.917 328.507,328.751 313.5,326C 294.188,320.005 274.688,314.839 255,310.5C 234.983,314.796 215.15,319.963 195.5,326C 181.262,328.131 172.096,322.298 168,308.5C 167.441,289.496 166.774,270.496 166,251.5C 164.177,243.526 161.01,236.193 156.5,229.5C 170.473,237.875 184.139,237.375 197.5,228C 208.14,217.095 208.14,206.261 197.5,195.5C 200,191.803 201,187.636 200.5,183C 201.912,171.637 197.412,168.137 187,172.5C 185.596,178.044 185.096,183.71 185.5,189.5C 168.274,185.535 155.441,191.201 147,206.5C 146.503,209.146 146.336,211.813 146.5,214.5C 139.612,205.747 133.445,196.413 128,186.5C 125.682,173.97 130.182,164.803 141.5,159C 157.167,153.333 172.833,147.667 188.5,142C 193.28,140.444 197.613,138.111 201.5,135C 214.361,119.439 226.861,103.606 239,87.5C 249.649,78.4303 260.482,78.2637 271.5,87C 283.926,103.182 296.593,119.182 309.5,135C 312.833,137 316.167,139 319.5,141C 336.167,147 352.833,153 369.5,159C 384.428,167.615 387.594,179.448 379,194.5C 374.303,201.348 369.47,208.015 364.5,214.5 Z"/></g>
<g><path style="opacity:1" fill="#69d4d1" d="M 149.5,114.5 C 155.813,120.478 162.146,126.478 168.5,132.5C 156.796,137.624 144.796,141.957 132.5,145.5C 121.71,143.71 111.044,142.043 100.5,140.5C 102.199,140.66 103.866,140.494 105.5,140C 109.578,135.251 114.245,131.251 119.5,128C 128.596,123.745 137.929,120.079 147.5,117C 148.756,116.583 149.423,115.75 149.5,114.5 Z"/></g>
<g><path style="opacity:1" fill="#69d4d1" d="M 361.5,114.5 C 362.122,116.335 363.456,117.502 365.5,118C 374.323,120.941 382.99,124.274 391.5,128C 396.806,131.31 401.473,135.31 405.5,140C 406.448,140.483 407.448,140.649 408.5,140.5C 398.022,142.481 387.355,144.147 376.5,145.5C 364.755,141.924 353.422,137.59 342.5,132.5C 348.854,126.478 355.187,120.478 361.5,114.5 Z"/></g>
<g><path style="opacity:1" fill="#d2d2fd" d="M 93.5,154.5 C 93.9234,155.265 94.2568,156.098 94.5,157C 87.1913,175.328 88.3579,193.161 98,210.5C 104.425,219.69 110.592,229.024 116.5,238.5C 88.547,234.864 60.8804,229.697 33.5,223C 23.3999,219.232 17.2332,212.066 15,201.5C 14.3333,188.5 14.3333,175.5 15,162.5C 18.936,151.702 26.6027,145.702 38,144.5C 56.4247,148.285 74.9247,151.618 93.5,154.5 Z"/></g>
<g><path style="opacity:1" fill="#d2d2fd" d="M 394.5,238.5 C 400.408,229.024 406.575,219.69 413,210.5C 422.642,193.161 423.809,175.328 416.5,157C 417.056,155.989 417.722,155.156 418.5,154.5C 436.199,151.427 453.866,148.094 471.5,144.5C 483.529,145.263 491.696,151.263 496,162.5C 496.667,175.5 496.667,188.5 496,201.5C 493.767,212.066 487.6,219.232 477.5,223C 450.078,229.512 422.412,234.679 394.5,238.5 Z"/></g>
<g><path style="opacity:1" fill="#9ca0e0" d="M 93.5,154.5 C 101.876,155.888 110.209,157.554 118.5,159.5C 111.542,171.346 110.708,183.679 116,196.5C 125.795,211.925 135.962,227.092 146.5,242C 136.346,241.286 126.346,240.12 116.5,238.5C 110.592,229.024 104.425,219.69 98,210.5C 88.3579,193.161 87.1913,175.328 94.5,157C 94.2568,156.098 93.9234,155.265 93.5,154.5 Z"/></g>
<g><path style="opacity:1" fill="#9ca0e0" d="M 418.5,154.5 C 417.722,155.156 417.056,155.989 416.5,157C 423.809,175.328 422.642,193.161 413,210.5C 406.575,219.69 400.408,229.024 394.5,238.5C 384.556,240.213 374.556,241.38 364.5,242C 375.038,227.092 385.205,211.925 395,196.5C 400.292,183.679 399.458,171.346 392.5,159.5C 400.919,156.984 409.586,155.317 418.5,154.5 Z"/></g>
<g><path style="opacity:1" fill="#040302" d="M 197.5,195.5 C 191.107,198.212 187.107,196.212 185.5,189.5C 185.096,183.71 185.596,178.044 187,172.5C 197.412,168.137 201.912,171.637 200.5,183C 201,187.636 200,191.803 197.5,195.5 Z"/></g>
<g><path style="opacity:1" fill="#040302" d="M 325.5,189.5 C 323.893,196.212 319.893,198.212 313.5,195.5C 312.496,194.317 311.662,192.984 311,191.5C 310.333,185.833 310.333,180.167 311,174.5C 311.5,172.667 312.667,171.5 314.5,171C 318.942,169.622 322.442,170.788 325,174.5C 325.499,179.489 325.666,184.489 325.5,189.5 Z"/></g>
<g><path style="opacity:1" fill="#060603" d="M 236.5,181.5 C 238.199,181.34 239.866,181.506 241.5,182C 244.167,184 246.833,186 249.5,188C 253.167,188.667 256.833,188.667 260.5,188C 264.115,185.371 267.948,183.204 272,181.5C 278.787,183.074 280.787,187.074 278,193.5C 267.087,204.263 254.587,206.43 240.5,200C 234.68,197.217 231.847,192.717 232,186.5C 233.025,184.313 234.525,182.646 236.5,181.5 Z"/></g>
<g><path style="opacity:1" fill="#eca1a9" d="M 185.5,189.5 C 187.107,196.212 191.107,198.212 197.5,195.5C 208.14,206.261 208.14,217.095 197.5,228C 184.139,237.375 170.473,237.875 156.5,229.5C 152.425,225.024 149.092,220.024 146.5,214.5C 146.336,211.813 146.503,209.146 147,206.5C 155.441,191.201 168.274,185.535 185.5,189.5 Z"/></g>
<g><path style="opacity:1" fill="#eca1a9" d="M 364.5,214.5 C 361.908,220.024 358.575,225.024 354.5,229.5C 344.398,235.842 333.731,237.008 322.5,233C 303.738,224.043 300.738,211.543 313.5,195.5C 319.893,198.212 323.893,196.212 325.5,189.5C 330.448,188.441 335.448,188.274 340.5,189C 355.314,191.309 363.314,199.809 364.5,214.5 Z"/></g>
<g><path style="opacity:1" fill="#4b3f60" d="M 60.5,244.5 C 58.5036,307.158 57.8369,370.158 58.5,433.5C 57.5009,370.336 57.1676,307.002 57.5,243.5C 58.791,243.263 59.791,243.596 60.5,244.5 Z"/></g>
<g><path style="opacity:1" fill="#a68bd5" d="M 60.5,244.5 C 83.0693,248.817 105.736,252.484 128.5,255.5C 129,274.846 129.834,294.18 131,313.5C 134.909,335.417 147.076,350.917 167.5,360C 180.231,364.942 193.231,365.775 206.5,362.5C 206.5,400.5 206.5,438.5 206.5,476.5C 169.832,476.667 133.165,476.5 96.5,476C 74.4662,470.136 61.7995,455.97 58.5,433.5C 57.8369,370.158 58.5036,307.158 60.5,244.5 Z"/></g>
<g><path style="opacity:1" fill="#a68bd5" d="M 451.5,244.5 C 452.499,306.998 452.832,369.664 452.5,432.5C 452.269,437.698 451.103,442.698 449,447.5C 442.941,460.559 433.274,469.892 420,475.5C 418.748,478.014 418.248,480.68 418.5,483.5C 411.863,484.276 405.196,484.609 398.5,484.5C 398.518,480.363 396.518,477.863 392.5,477C 363.169,476.5 333.835,476.333 304.5,476.5C 304.5,438.5 304.5,400.5 304.5,362.5C 338.154,368.59 362.321,356.257 377,325.5C 378,321.833 379,318.167 380,314.5C 381.144,294.845 381.977,275.178 382.5,255.5C 405.529,251.94 428.529,248.273 451.5,244.5 Z"/></g>
<g><path style="opacity:1" fill="#4c3f61" d="M 451.5,244.5 C 451.56,243.957 451.893,243.624 452.5,243.5C 453.832,306.665 453.832,369.665 452.5,432.5C 452.832,369.664 452.499,306.998 451.5,244.5 Z"/></g>
<g><path style="opacity:1" fill="#7f7acd" d="M 128.5,255.5 C 136.123,256.606 143.79,257.273 151.5,257.5C 151.692,275.174 152.192,292.84 153,310.5C 160.883,336.364 178.05,346.031 204.5,339.5C 206.465,346.76 207.132,354.427 206.5,362.5C 193.231,365.775 180.231,364.942 167.5,360C 147.076,350.917 134.909,335.417 131,313.5C 129.834,294.18 129,274.846 128.5,255.5 Z"/></g>
<g><path style="opacity:1" fill="#7e79cc" d="M 382.5,255.5 C 381.977,275.178 381.144,294.845 380,314.5C 379,318.167 378,321.833 377,325.5C 362.321,356.257 338.154,368.59 304.5,362.5C 303.868,354.427 304.535,346.76 306.5,339.5C 330.555,345.389 347.388,337.056 357,314.5C 358.381,295.53 359.214,276.53 359.5,257.5C 367.167,256.833 374.833,256.167 382.5,255.5 Z"/></g>
<g><path style="opacity:1" fill="#69d5d2" d="M 288.5,357.5 C 277.444,354.277 266.277,351.277 255,348.5C 244.032,351.116 233.199,354.116 222.5,357.5C 222.5,349.5 222.5,341.5 222.5,333.5C 233.118,330.627 243.785,327.96 254.5,325.5C 265.886,327.962 277.219,330.629 288.5,333.5C 288.5,341.5 288.5,349.5 288.5,357.5 Z"/></g>
<g><path style="opacity:1" fill="#8de1e0" d="M 288.5,357.5 C 288.5,397.167 288.5,436.833 288.5,476.5C 266.5,476.5 244.5,476.5 222.5,476.5C 222.5,436.833 222.5,397.167 222.5,357.5C 233.199,354.116 244.032,351.116 255,348.5C 266.277,351.277 277.444,354.277 288.5,357.5 Z"/></g>
<g><path style="opacity:1" fill="#594c76" d="M 204.5,339.5 C 205.209,338.596 206.209,338.263 207.5,338.5C 207.832,384.67 207.499,430.67 206.5,476.5C 206.5,438.5 206.5,400.5 206.5,362.5C 207.132,354.427 206.465,346.76 204.5,339.5 Z"/></g>
<g><path style="opacity:1" fill="#594c76" d="M 306.5,339.5 C 304.535,346.76 303.868,354.427 304.5,362.5C 304.5,400.5 304.5,438.5 304.5,476.5C 303.501,430.67 303.168,384.67 303.5,338.5C 304.791,338.263 305.791,338.596 306.5,339.5 Z"/></g>
</svg>
