<?xml version="1.0" encoding="UTF-8"?>
<!DOCTYPE svg PUBLIC "-//W3C//DTD SVG 1.1//EN" "http://www.w3.org/Graphics/SVG/1.1/DTD/svg11.dtd">
<svg xmlns="http://www.w3.org/2000/svg" version="1.1" width="512px" height="512px" style="shape-rendering:geometricPrecision; text-rendering:geometricPrecision; image-rendering:optimizeQuality; fill-rule:evenodd; clip-rule:evenodd" xmlns:xlink="http://www.w3.org/1999/xlink">
<g><path style="opacity:0.977" fill="#010101" d="M 511.5,152.5 C 511.5,158.167 511.5,163.833 511.5,169.5C 506.413,183.752 496.58,193.085 482,197.5C 479.01,210.636 475.177,223.47 470.5,236C 468.323,237.202 465.989,237.702 463.5,237.5C 459.62,236.282 457.62,233.615 457.5,229.5C 460.014,219.112 462.68,208.778 465.5,198.5C 466.404,197.791 466.737,196.791 466.5,195.5C 368.665,195.167 270.999,195.501 173.5,196.5C 177.874,215.573 181.874,234.74 185.5,254C 186.018,257.978 184.352,260.478 180.5,261.5C 176.645,262.155 173.812,260.821 172,257.5C 163.805,219.719 155.138,182.052 146,144.5C 136.927,123.76 121.427,110.594 99.5,105C 76.196,103.42 52.8627,103.087 29.5,104C 14.8058,110.409 10.9725,120.909 18,135.5C 20.592,138.762 23.7587,141.262 27.5,143C 48.7695,144.3 70.1028,144.967 91.5,145C 100,148.167 105.833,154 109,162.5C 120.893,217.522 132.893,272.522 145,327.5C 150.699,352.067 164.866,369.901 187.5,381C 203.514,376.059 219.514,376.392 235.5,382C 239.327,383.746 242.993,385.746 246.5,388C 252.491,388.499 258.491,388.666 264.5,388.5C 299.168,388.667 333.835,388.5 368.5,388C 391.571,374.347 414.904,374.014 438.5,387C 445.822,386.907 450.988,383.407 454,376.5C 458.359,362.213 453.525,352.879 439.5,348.5C 364.001,347.667 288.334,347.167 212.5,347C 201.687,343.857 193.521,337.357 188,327.5C 184.119,313.094 180.619,298.594 177.5,284C 178.234,280.438 180.234,277.938 183.5,276.5C 187.493,276.245 190.326,277.911 192,281.5C 194.669,293.507 197.335,305.507 200,317.5C 205.888,330.028 215.721,335.028 229.5,332.5C 296.17,332.833 362.837,332.5 429.5,331.5C 436.488,306.55 443.321,281.55 450,256.5C 452.239,253.038 455.406,251.705 459.5,252.5C 463.134,253.639 465.134,256.139 465.5,260C 458.916,284.166 452.25,308.333 445.5,332.5C 467.26,342.022 475.093,358.356 469,381.5C 465.656,389.179 460.489,395.346 453.5,400C 472.657,426.137 473.157,452.637 455,479.5C 432.351,504.537 405.517,510.37 374.5,497C 344.332,477.798 334.498,450.964 345,416.5C 346.787,412.423 348.954,408.59 351.5,405C 322.5,404.333 293.5,404.333 264.5,405C 282.074,437.229 277.408,465.895 250.5,491C 222.462,509.263 195.129,508.263 168.5,488C 145.412,463.628 141.578,436.461 157,406.5C 161.089,400.407 165.922,394.907 171.5,390C 149.686,376.22 135.853,356.72 130,331.5C 117.921,275.771 105.588,220.105 93,164.5C 91.3626,162.19 89.196,160.69 86.5,160C 66.8333,159.667 47.1667,159.333 27.5,159C 13.4234,155.088 4.09008,146.255 -0.5,132.5C -0.5,126.833 -0.5,121.167 -0.5,115.5C 4.99746,98.7235 16.6641,89.5569 34.5,88C 55.8544,87.1704 77.1877,87.5037 98.5,89C 119.395,92.7437 136.395,102.91 149.5,119.5C 165.125,103.374 180.959,87.3741 197,71.5C 197.333,60.1667 197.667,48.8333 198,37.5C 203.637,18.8608 216.137,8.69412 235.5,7C 256.167,6.33333 276.833,6.33333 297.5,7C 307.627,7.37102 316.294,11.0377 323.5,18C 367.167,18.3333 410.833,18.6667 454.5,19C 469.15,22.3173 478.65,31.1507 483,45.5C 484.427,72.4698 484.927,99.4698 484.5,126.5C 498.75,129.75 507.75,138.417 511.5,152.5 Z"/></g>
<g><path style="opacity:1" fill="#fad9b1" d="M 230.5,22.5 C 254.502,22.3334 278.502,22.5 302.5,23C 311,26.1667 316.833,32 320,40.5C 320.5,49.1603 320.666,57.8269 320.5,66.5C 284.5,66.5 248.5,66.5 212.5,66.5C 212.334,57.8269 212.5,49.1603 213,40.5C 216.353,31.9815 222.186,25.9815 230.5,22.5 Z"/></g>
<g><path style="opacity:1" fill="#76c8e8" d="M 367.5,48.5 C 366.833,66.5 366.167,84.5 365.5,102.5C 355.896,92.3951 346.063,82.3951 336,72.5C 335.667,61.5 335.333,50.5 335,39.5C 334.654,37.7818 334.154,36.1151 333.5,34.5C 346.821,33.334 360.154,33.1673 373.5,34C 369.98,38.207 367.98,43.0403 367.5,48.5 Z"/></g>
<g><path style="opacity:1" fill="#a4dcf0" d="M 398.5,33.5 C 416.17,33.3334 433.836,33.5001 451.5,34C 459.477,35.9752 464.977,40.8085 468,48.5C 468.5,74.1645 468.667,99.8312 468.5,125.5C 441.498,125.667 414.498,125.5 387.5,125C 385.667,123.167 383.833,121.333 382,119.5C 381.333,96.1667 381.333,72.8333 382,49.5C 384.778,41.2202 390.278,35.8869 398.5,33.5 Z"/></g>
<g><path style="opacity:1" fill="#010202" d="M 406.5,50.5 C 419.171,50.3334 431.838,50.5001 444.5,51C 448.5,55.3333 448.5,59.6667 444.5,64C 431.833,64.6667 419.167,64.6667 406.5,64C 402.304,61.0189 401.471,57.1856 404,52.5C 404.995,51.9341 405.828,51.2674 406.5,50.5 Z"/></g>
<g><path style="opacity:1" fill="#253e48" d="M 367.5,48.5 C 367.833,66.8454 367.5,85.1788 366.5,103.5C 365.893,103.376 365.56,103.043 365.5,102.5C 366.167,84.5 366.833,66.5 367.5,48.5 Z"/></g>
<g><path style="opacity:1" fill="#060708" d="M 406.5,76.5 C 418.838,76.3335 431.171,76.5001 443.5,77C 447.212,79.513 448.378,83.013 447,87.5C 445.786,89.0488 444.286,90.2155 442.5,91C 430.833,91.6667 419.167,91.6667 407.5,91C 401.292,86.5805 400.958,81.7472 406.5,76.5 Z"/></g>
<g><path style="opacity:1" fill="#887f77" d="M 208.5,82.5 C 242.002,81.1699 275.669,81.1699 309.5,82.5C 309.376,83.1067 309.043,83.44 308.5,83.5C 275.338,82.5017 242.004,82.1684 208.5,82.5 Z"/></g>
<g><path style="opacity:1" fill="#feeedf" d="M 208.5,82.5 C 242.004,82.1684 275.338,82.5017 308.5,83.5C 295.006,97.1609 281.673,110.994 268.5,125C 234.5,125.667 200.5,125.667 166.5,125C 180.006,110.327 194.006,96.1607 208.5,82.5 Z"/></g>
<g><path style="opacity:1" fill="#f8e3c6" d="M 327.5,85.5 C 340.37,98.6877 353.37,111.854 366.5,125C 340.833,125.667 315.167,125.667 289.5,125C 302.006,111.661 314.673,98.4943 327.5,85.5 Z"/></g>
<g><path style="opacity:1" fill="#b0aeba" d="M 180.5,261.5 C 181.657,266.464 182.657,271.464 183.5,276.5C 180.234,277.938 178.234,280.438 177.5,284C 180.619,298.594 184.119,313.094 188,327.5C 193.521,337.357 201.687,343.857 212.5,347C 288.334,347.167 364.001,347.667 439.5,348.5C 372.166,348.333 304.833,348.5 237.5,349C 244.656,363.497 253.656,376.664 264.5,388.5C 258.491,388.666 252.491,388.499 246.5,388C 242.993,385.746 239.327,383.746 235.5,382C 219.514,376.392 203.514,376.059 187.5,381C 164.866,369.901 150.699,352.067 145,327.5C 132.893,272.522 120.893,217.522 109,162.5C 105.833,154 100,148.167 91.5,145C 70.1028,144.967 48.7695,144.3 27.5,143C 23.7587,141.262 20.592,138.762 18,135.5C 10.9725,120.909 14.8058,110.409 29.5,104C 52.8627,103.087 76.196,103.42 99.5,105C 121.427,110.594 136.927,123.76 146,144.5C 155.138,182.052 163.805,219.719 172,257.5C 173.812,260.821 176.645,262.155 180.5,261.5 Z"/></g>
<g><path style="opacity:1" fill="#f8d787" d="M 224.5,140.5 C 220.542,153.586 217.875,166.919 216.5,180.5C 200.756,180.817 185.089,180.484 169.5,179.5C 167.046,166.519 164.046,153.686 160.5,141C 181.831,140.5 203.164,140.333 224.5,140.5 Z"/></g>
<g><path style="opacity:1" fill="#fae19e" d="M 224.5,140.5 C 310.167,140.333 395.834,140.5 481.5,141C 496.215,147.476 500.048,157.976 493,172.5C 489.975,177.038 485.809,179.704 480.5,180.5C 392.5,180.5 304.5,180.5 216.5,180.5C 217.875,166.919 220.542,153.586 224.5,140.5 Z"/></g>
<g><path style="opacity:1" fill="#d8c186" d="M 169.5,179.5 C 185.089,180.484 200.756,180.817 216.5,180.5C 304.5,180.5 392.5,180.5 480.5,180.5C 428.834,181.167 377.001,181.5 325,181.5C 272.829,181.5 220.996,180.833 169.5,179.5 Z"/></g>
<g><path style="opacity:1" fill="#220f13" d="M 173.5,196.5 C 270.999,195.501 368.665,195.167 466.5,195.5C 466.737,196.791 466.404,197.791 465.5,198.5C 381.84,196.503 297.84,195.836 213.5,196.5C 200.167,196.5 186.833,196.5 173.5,196.5 Z"/></g>
<g><path style="opacity:1" fill="#fb5e7d" d="M 173.5,196.5 C 186.833,196.5 200.167,196.5 213.5,196.5C 212.001,212.791 211.335,229.124 211.5,245.5C 205.618,255.565 206.618,264.899 214.5,273.5C 217.467,293.701 222.467,313.368 229.5,332.5C 215.721,335.028 205.888,330.028 200,317.5C 197.335,305.507 194.669,293.507 192,281.5C 190.326,277.911 187.493,276.245 183.5,276.5C 182.657,271.464 181.657,266.464 180.5,261.5C 184.352,260.478 186.018,257.978 185.5,254C 181.874,234.74 177.874,215.573 173.5,196.5 Z"/></g>
<g><path style="opacity:1" fill="#fe738e" d="M 213.5,196.5 C 297.84,195.836 381.84,196.503 465.5,198.5C 462.68,208.778 460.014,219.112 457.5,229.5C 457.62,233.615 459.62,236.282 463.5,237.5C 462.322,242.543 460.989,247.543 459.5,252.5C 455.406,251.705 452.239,253.038 450,256.5C 443.321,281.55 436.488,306.55 429.5,331.5C 362.837,332.5 296.17,332.833 229.5,332.5C 222.467,313.368 217.467,293.701 214.5,273.5C 229.289,283.979 244.289,284.145 259.5,274C 268.81,263.138 268.81,252.304 259.5,241.5C 262.442,234.851 263.275,227.851 262,220.5C 258.702,215.226 254.369,214.226 249,217.5C 247.59,223.379 247.09,229.379 247.5,235.5C 233.443,231.745 221.443,235.078 211.5,245.5C 211.335,229.124 212.001,212.791 213.5,196.5 Z"/></g>
<g><path style="opacity:1" fill="#0c0506" d="M 259.5,241.5 C 252.997,244.22 248.997,242.22 247.5,235.5C 247.09,229.379 247.59,223.379 249,217.5C 254.369,214.226 258.702,215.226 262,220.5C 263.275,227.851 262.442,234.851 259.5,241.5 Z"/></g>
<g><path style="opacity:1" fill="#040202" d="M 388.5,235.5 C 387.045,241.396 383.378,243.396 377.5,241.5C 376.531,240.691 375.698,239.691 375,238.5C 374.333,232.167 374.333,225.833 375,219.5C 378.267,215.066 382.267,214.4 387,217.5C 388.41,223.379 388.91,229.379 388.5,235.5 Z"/></g>
<g><path style="opacity:1" fill="#080304" d="M 297.5,227.5 C 303.005,226.586 307.338,228.42 310.5,233C 315.473,234.939 320.473,234.939 325.5,233C 329.934,226.899 335.1,226.066 341,230.5C 343.149,234.087 342.816,237.42 340,240.5C 328.183,250.538 315.349,252.038 301.5,245C 297.841,242.185 295.174,238.685 293.5,234.5C 294.071,231.687 295.404,229.354 297.5,227.5 Z"/></g>
<g><path style="opacity:1" fill="#febcd6" d="M 247.5,235.5 C 248.997,242.22 252.997,244.22 259.5,241.5C 268.81,252.304 268.81,263.138 259.5,274C 244.289,284.145 229.289,283.979 214.5,273.5C 206.618,264.899 205.618,255.565 211.5,245.5C 221.443,235.078 233.443,231.745 247.5,235.5 Z"/></g>
<g><path style="opacity:1" fill="#febcd6" d="M 377.5,241.5 C 383.378,243.396 387.045,241.396 388.5,235.5C 402.998,231.852 415.165,235.518 425,246.5C 431.735,262.876 426.569,274.043 409.5,280C 393.272,284.593 380.438,280.093 371,266.5C 367.341,256.501 369.507,248.167 377.5,241.5 Z"/></g>
<g><path style="opacity:1" fill="#c6c4ca" d="M 439.5,348.5 C 453.525,352.879 458.359,362.213 454,376.5C 450.988,383.407 445.822,386.907 438.5,387C 414.904,374.014 391.571,374.347 368.5,388C 333.835,388.5 299.168,388.667 264.5,388.5C 253.656,376.664 244.656,363.497 237.5,349C 304.833,348.5 372.166,348.333 439.5,348.5 Z"/></g>
<g><path style="opacity:1" fill="#68627d" d="M 205.5,392.5 C 233.628,391.47 251.461,404.47 259,431.5C 261.442,449.017 256.275,463.684 243.5,475.5C 235.019,474.42 227.352,471.42 220.5,466.5C 236.295,458.9 241.795,446.567 237,429.5C 227.383,413.239 213.883,408.906 196.5,416.5C 195.867,408.833 197.7,401.5 202,394.5C 203.302,393.915 204.469,393.249 205.5,392.5 Z"/></g>
<g><path style="opacity:1" fill="#68627d" d="M 398.5,392.5 C 421.892,390.941 438.725,400.607 449,421.5C 454.435,437.078 453.101,452.078 445,466.5C 442.666,470 439.832,473 436.5,475.5C 428.019,474.42 420.352,471.42 413.5,466.5C 429.295,458.9 434.795,446.567 430,429.5C 420.383,413.239 406.883,408.906 389.5,416.5C 388.88,408.802 390.714,401.468 395,394.5C 396.302,393.915 397.469,393.249 398.5,392.5 Z"/></g>
<g><path style="opacity:1" fill="#5a566d" d="M 205.5,392.5 C 204.469,393.249 203.302,393.915 202,394.5C 197.7,401.5 195.867,408.833 196.5,416.5C 181.401,429.063 179.568,443.396 191,459.5C 199.487,467.278 209.32,469.611 220.5,466.5C 227.352,471.42 235.019,474.42 243.5,475.5C 236.356,482.57 227.689,486.737 217.5,488C 189.762,489.592 171.929,477.092 164,450.5C 160.745,424.503 170.911,406.003 194.5,395C 198.07,393.69 201.737,392.857 205.5,392.5 Z"/></g>
<g><path style="opacity:1" fill="#5a566d" d="M 398.5,392.5 C 397.469,393.249 396.302,393.915 395,394.5C 390.714,401.468 388.88,408.802 389.5,416.5C 374.401,429.063 372.568,443.396 384,459.5C 392.487,467.278 402.32,469.611 413.5,466.5C 420.352,471.42 428.019,474.42 436.5,475.5C 429.356,482.57 420.689,486.737 410.5,488C 382.787,489.624 364.954,477.124 357,450.5C 353.745,424.503 363.911,406.003 387.5,395C 391.07,393.69 394.737,392.857 398.5,392.5 Z"/></g>
<g><path style="opacity:1" fill="#030203" d="M 220.5,466.5 C 209.32,469.611 199.487,467.278 191,459.5C 179.568,443.396 181.401,429.063 196.5,416.5C 213.883,408.906 227.383,413.239 237,429.5C 241.795,446.567 236.295,458.9 220.5,466.5 Z"/></g>
<g><path style="opacity:1" fill="#030303" d="M 413.5,466.5 C 402.32,469.611 392.487,467.278 384,459.5C 372.568,443.396 374.401,429.063 389.5,416.5C 406.883,408.906 420.383,413.239 430,429.5C 434.795,446.567 429.295,458.9 413.5,466.5 Z"/></g>
<g><path style="opacity:1" fill="#c2c0c6" d="M 207.5,427.5 C 219.684,427.514 224.85,433.514 223,445.5C 219.345,452.07 213.845,454.237 206.5,452C 198.372,447.251 196.539,440.751 201,432.5C 202.965,430.45 205.132,428.783 207.5,427.5 Z"/></g>
<g><path style="opacity:1" fill="#c2c0c6" d="M 400.5,427.5 C 412.684,427.514 417.85,433.514 416,445.5C 412.345,452.07 406.845,454.237 399.5,452C 392.383,447.943 390.216,442.109 393,434.5C 395.015,431.588 397.515,429.255 400.5,427.5 Z"/></g>
</svg>
