<?xml version="1.0" encoding="UTF-8"?>
<!DOCTYPE svg PUBLIC "-//W3C//DTD SVG 1.1//EN" "http://www.w3.org/Graphics/SVG/1.1/DTD/svg11.dtd">
<svg xmlns="http://www.w3.org/2000/svg" version="1.1" width="512px" height="512px" style="shape-rendering:geometricPrecision; text-rendering:geometricPrecision; image-rendering:optimizeQuality; fill-rule:evenodd; clip-rule:evenodd" xmlns:xlink="http://www.w3.org/1999/xlink">
<g><path style="opacity:0.961" fill="#000201" d="M 233.5,-0.5 C 248.5,-0.5 263.5,-0.5 278.5,-0.5C 379.371,12.3469 450.871,65.0136 493,157.5C 502.497,181.819 508.663,206.819 511.5,232.5C 511.5,247.833 511.5,263.167 511.5,278.5C 501.026,367.433 457.36,434.6 380.5,480C 348.466,497.292 314.466,507.792 278.5,511.5C 263.167,511.5 247.833,511.5 232.5,511.5C 143.853,500.61 76.6868,456.943 31,380.5C 13.7076,348.465 3.20759,314.465 -0.5,278.5C -0.5,263.167 -0.5,247.833 -0.5,232.5C 6.79456,165.077 35.4612,108.577 85.5,63C 88.7024,61.5167 92.0357,61.1834 95.5,62C 96.056,62.3826 96.3893,62.8826 96.5,63.5C 98.8425,66.7171 99.0092,70.0504 97,73.5C 24.1487,142.073 -0.184665,225.073 24,322.5C 46.9156,396.085 93.749,448.252 164.5,479C 236.149,506.073 305.816,501.74 373.5,466C 459.061,413.398 499.894,336.564 496,235.5C 487.136,156.227 449.636,94.7274 383.5,51C 322.036,14.502 256.703,5.50203 187.5,24C 162.765,31.5356 139.765,42.5356 118.5,57C 114.345,58.0536 110.678,57.2202 107.5,54.5C 106.54,50.9818 107.206,47.6484 109.5,44.5C 146.962,18.7909 188.295,3.79091 233.5,-0.5 Z"/></g>
<g><path style="opacity:1" fill="#4fe0cc" d="M 96.5,63.5 C 100.482,60.8482 104.149,57.8482 107.5,54.5C 110.678,57.2202 114.345,58.0536 118.5,57C 139.765,42.5356 162.765,31.5356 187.5,24C 256.703,5.50203 322.036,14.502 383.5,51C 449.636,94.7274 487.136,156.227 496,235.5C 499.894,336.564 459.061,413.398 373.5,466C 305.816,501.74 236.149,506.073 164.5,479C 93.749,448.252 46.9156,396.085 24,322.5C -0.184665,225.073 24.1487,142.073 97,73.5C 99.0092,70.0504 98.8425,66.7171 96.5,63.5 Z"/></g>
<g><path style="opacity:1" fill="#010303" d="M 424.5,359.5 C 421.695,356.754 420.861,353.421 422,349.5C 454.562,286.791 454.562,224.124 422,161.5C 379.721,93.4367 318.221,61.2701 237.5,65C 229.041,66.0593 220.708,67.5593 212.5,69.5C 146.904,86.5937 101.404,126.594 76,189.5C 53.1769,259.106 64.5102,322.439 110,379.5C 138.727,412.453 174.56,433.453 217.5,442.5C 294.828,455.113 358.495,431.28 408.5,371C 411.192,370.57 413.859,370.737 416.5,371.5C 418.887,375.387 419.054,379.387 417,383.5C 374.337,434.974 319.337,460.974 252,461.5C 175.48,457.428 117.146,423.095 77,358.5C 39.387,287.502 40.387,217.169 80,147.5C 120.762,85.1882 178.595,52.5216 253.5,49.5C 332.615,51.4521 392.782,85.7855 434,152.5C 470.301,220.273 470.635,288.273 435,356.5C 432.103,359.231 428.603,360.231 424.5,359.5 Z"/></g>
<g><path style="opacity:1" fill="#4386d8" d="M 424.5,359.5 C 421.833,363.5 419.167,367.5 416.5,371.5C 413.859,370.737 411.192,370.57 408.5,371C 358.495,431.28 294.828,455.113 217.5,442.5C 145.442,412.755 102.609,359.422 89,282.5C 81.0379,193.922 114.871,126.755 190.5,81C 197.333,77.8333 204.167,74.6667 211,71.5C 212.03,71.1639 212.53,70.4972 212.5,69.5C 220.708,67.5593 229.041,66.0593 237.5,65C 318.221,61.2701 379.721,93.4367 422,161.5C 454.562,224.124 454.562,286.791 422,349.5C 420.861,353.421 421.695,356.754 424.5,359.5 Z"/></g>
<g><path style="opacity:1" fill="#0069cd" d="M 212.5,69.5 C 212.53,70.4972 212.03,71.1639 211,71.5C 204.167,74.6667 197.333,77.8333 190.5,81C 114.871,126.755 81.0379,193.922 89,282.5C 102.609,359.422 145.442,412.755 217.5,442.5C 174.56,433.453 138.727,412.453 110,379.5C 64.5102,322.439 53.1769,259.106 76,189.5C 101.404,126.594 146.904,86.5937 212.5,69.5 Z"/></g>
<g><path style="opacity:1" fill="#010103" d="M 180.5,96.5 C 184.516,95.8999 188.016,96.8999 191,99.5C 191.667,106.5 191.667,113.5 191,120.5C 188.839,124.124 185.672,125.291 181.5,124C 179.667,123.5 178.5,122.333 178,120.5C 177.333,113.5 177.333,106.5 178,99.5C 179.045,98.6266 179.878,97.6266 180.5,96.5 Z"/></g>
<g><path style="opacity:1" fill="#010203" d="M 322.5,96.5 C 326.603,95.7691 330.103,96.7691 333,99.5C 333.667,106.5 333.667,113.5 333,120.5C 330.839,124.124 327.672,125.291 323.5,124C 321.667,123.5 320.5,122.333 320,120.5C 319.333,113.5 319.333,106.5 320,99.5C 321.045,98.6266 321.878,97.6266 322.5,96.5 Z"/></g>
<g><path style="opacity:1" fill="#010204" d="M 233.5,109.5 C 235.527,109.338 237.527,109.505 239.5,110C 249.875,119.994 260.208,119.994 270.5,110C 278.17,108.673 281.67,111.839 281,119.5C 272.465,130.349 261.299,134.516 247.5,132C 240.95,130.11 235.45,126.61 231,121.5C 228.511,116.757 229.345,112.757 233.5,109.5 Z"/></g>
<g><path style="opacity:1" fill="#040507" d="M 146.5,151.5 C 218.501,151.333 290.501,151.5 362.5,152C 370.483,153.754 375.649,158.587 378,166.5C 378.667,176.167 378.667,185.833 378,195.5C 375.321,204.177 369.488,209.343 360.5,211C 289.833,211.667 219.167,211.667 148.5,211C 135.171,205.263 129.838,195.096 132.5,180.5C 130.545,167.415 135.211,157.748 146.5,151.5 Z"/></g>
<g><path style="opacity:1" fill="#fbfbfb" d="M 150.5,166.5 C 220.501,166.333 290.501,166.5 360.5,167C 361.333,167.833 362.167,168.667 363,169.5C 363.667,177.167 363.667,184.833 363,192.5C 362.5,194.333 361.333,195.5 359.5,196C 290.167,196.667 220.833,196.667 151.5,196C 149.667,195.5 148.5,194.333 148,192.5C 147.333,184.833 147.333,177.167 148,169.5C 149.045,168.627 149.878,167.627 150.5,166.5 Z"/></g>
<g><path style="opacity:1" fill="#000000" d="M 147.5,235.5 C 219.167,235.333 290.834,235.5 362.5,236C 369.181,238.013 374.014,242.18 377,248.5C 378.592,258.759 378.926,269.093 378,279.5C 375.5,287.333 370.333,292.5 362.5,295C 290.833,295.667 219.167,295.667 147.5,295C 135.106,288.875 130.106,278.875 132.5,265C 130.257,251.318 135.257,241.485 147.5,235.5 Z"/></g>
<g><path style="opacity:1" fill="#fefefe" d="M 150.5,250.5 C 220.501,250.333 290.501,250.5 360.5,251C 361.333,251.833 362.167,252.667 363,253.5C 363.667,261.5 363.667,269.5 363,277.5C 362.167,278.333 361.333,279.167 360.5,280C 290.5,280.667 220.5,280.667 150.5,280C 149.667,279.167 148.833,278.333 148,277.5C 147.333,269.5 147.333,261.5 148,253.5C 149.045,252.627 149.878,251.627 150.5,250.5 Z"/></g>
<g><path style="opacity:1" fill="#050507" d="M 148.5,319.5 C 219.501,319.333 290.501,319.5 361.5,320C 368.769,321.606 373.935,325.773 377,332.5C 378.592,342.759 378.926,353.093 378,363.5C 376.131,372.036 370.964,377.203 362.5,379C 290.5,379.667 218.5,379.667 146.5,379C 134.787,372.735 130.121,362.901 132.5,349.5C 130.023,335.111 135.356,325.111 148.5,319.5 Z"/></g>
<g><path style="opacity:1" fill="#fbfbfb" d="M 151.5,334.5 C 220.834,334.333 290.167,334.5 359.5,335C 361.333,335.5 362.5,336.667 363,338.5C 363.667,346.167 363.667,353.833 363,361.5C 362.167,362.333 361.333,363.167 360.5,364C 290.5,364.667 220.5,364.667 150.5,364C 149.667,363.167 148.833,362.333 148,361.5C 147.333,353.833 147.333,346.167 148,338.5C 148.69,336.65 149.856,335.316 151.5,334.5 Z"/></g>
</svg>
