<?xml version="1.0" encoding="UTF-8"?>
<!DOCTYPE svg PUBLIC "-//W3C//DTD SVG 1.1//EN" "http://www.w3.org/Graphics/SVG/1.1/DTD/svg11.dtd">
<svg xmlns="http://www.w3.org/2000/svg" version="1.1" width="512px" height="512px" style="shape-rendering:geometricPrecision; text-rendering:geometricPrecision; image-rendering:optimizeQuality; fill-rule:evenodd; clip-rule:evenodd" xmlns:xlink="http://www.w3.org/1999/xlink">
<g><path style="opacity:0.981" fill="#030302" d="M 234.5,-0.5 C 248.5,-0.5 262.5,-0.5 276.5,-0.5C 355.007,8.98641 414.841,47.3197 456,114.5C 490.386,177.754 495.72,243.42 472,311.5C 468.638,319.725 465.138,327.891 461.5,336C 482.67,346.834 495.17,364.001 499,387.5C 499.667,410.5 499.667,433.5 499,456.5C 493.631,486.032 476.464,504.365 447.5,511.5C 438.833,511.5 430.167,511.5 421.5,511.5C 419.396,509.628 418.063,507.295 417.5,504.5C 418.053,501.413 419.72,498.913 422.5,497C 437.162,498.171 450.829,495.171 463.5,488C 473.858,480.8 480.358,470.967 483,458.5C 483.667,433.833 483.667,409.167 483,384.5C 477.29,364.789 464.457,352.623 444.5,348C 352.501,347.5 260.501,347.333 168.5,347.5C 133.832,347.333 99.1651,347.5 64.5,348C 45.6667,353.5 33.5,365.667 28,384.5C 27.3333,409.167 27.3333,433.833 28,458.5C 33.2776,478.778 46.1109,491.278 66.5,496C 110.499,496.5 154.499,496.667 198.5,496.5C 262.834,496.333 327.168,496.5 391.5,497C 395.518,497.863 397.518,500.363 397.5,504.5C 397.429,507.652 396.095,509.986 393.5,511.5C 283.5,511.5 173.5,511.5 63.5,511.5C 34.5358,504.365 17.3691,486.032 12,456.5C 11.3333,433.5 11.3333,410.5 12,387.5C 15.8303,364.001 28.3303,346.834 49.5,336C 16.744,266.723 16.244,197.223 48,127.5C 62.5906,97.9048 82.7572,72.7381 108.5,52C 111.592,51.2642 114.592,51.4309 117.5,52.5C 119.343,55.5637 119.843,58.8971 119,62.5C 50.3252,123.868 26.6586,199.535 48,289.5C 52.5932,304.185 58.4265,318.352 65.5,332C 91.1645,332.5 116.831,332.667 142.5,332.5C 146.278,309.439 156.945,290.272 174.5,275C 134.595,248.999 118.095,212.165 125,164.5C 136.039,117.457 164.539,86.2905 210.5,71C 254.684,58.5321 296.351,64.1988 335.5,88C 384.973,125.769 398.807,173.936 377,232.5C 367.603,250.564 354.103,264.731 336.5,275C 354.055,290.272 364.722,309.439 368.5,332.5C 394.169,332.667 419.835,332.5 445.5,332C 482.064,258.978 479.897,187.145 439,116.5C 395.302,50.5809 333.636,16.5809 254,14.5C 214.751,14.7708 178.251,24.9375 144.5,45C 139.81,46.4704 136.477,44.9704 134.5,40.5C 133.352,36.7729 134.352,33.6062 137.5,31C 167.684,13.549 200.017,3.04898 234.5,-0.5 Z"/></g>
<g><path style="opacity:1" fill="#edebfd" d="M 117.5,52.5 C 122.991,48.2541 128.658,44.2541 134.5,40.5C 136.477,44.9704 139.81,46.4704 144.5,45C 178.251,24.9375 214.751,14.7708 254,14.5C 333.636,16.5809 395.302,50.5809 439,116.5C 479.897,187.145 482.064,258.978 445.5,332C 419.835,332.5 394.169,332.667 368.5,332.5C 364.722,309.439 354.055,290.272 336.5,275C 354.103,264.731 367.603,250.564 377,232.5C 398.807,173.936 384.973,125.769 335.5,88C 296.351,64.1988 254.684,58.5321 210.5,71C 164.539,86.2905 136.039,117.457 125,164.5C 118.095,212.165 134.595,248.999 174.5,275C 156.945,290.272 146.278,309.439 142.5,332.5C 116.831,332.667 91.1645,332.5 65.5,332C 58.4265,318.352 52.5932,304.185 48,289.5C 26.6586,199.535 50.3252,123.868 119,62.5C 119.843,58.8971 119.343,55.5637 117.5,52.5 Z"/></g>
<g><path style="opacity:1" fill="#a68bd5" d="M 240.5,79.5 C 272.911,76.5441 302.577,84.0441 329.5,102C 369.635,133.746 381.469,173.913 365,222.5C 353.475,245.354 335.642,261.187 311.5,270C 277.138,281.407 242.471,282.407 207.5,273C 149.533,251.904 128.367,211.404 144,151.5C 158.411,117.095 183.577,94.5951 219.5,84C 226.57,82.1547 233.57,80.6547 240.5,79.5 Z"/></g>
<g><path style="opacity:1" fill="#050506" d="M 195.5,189.5 C 190.019,190.102 186.685,187.768 185.5,182.5C 185.334,177.156 185.501,171.823 186,166.5C 190.588,161.257 195.255,161.257 200,166.5C 200.667,172.5 200.667,178.5 200,184.5C 198.975,186.687 197.475,188.354 195.5,189.5 Z"/></g>
<g><path style="opacity:1" fill="#060506" d="M 325.5,181.5 C 323.81,189.178 319.477,191.178 312.5,187.5C 310.454,180.703 309.954,173.703 311,166.5C 315.588,161.257 320.255,161.257 325,166.5C 325.499,171.489 325.666,176.489 325.5,181.5 Z"/></g>
<g><path style="opacity:1" fill="#040305" d="M 235.5,174.5 C 240.437,173.603 244.437,175.103 247.5,179C 251.976,181.877 256.643,182.21 261.5,180C 263.833,178.333 266.167,176.667 268.5,175C 274.422,173.124 278.088,175.124 279.5,181C 275.888,189.831 269.221,194.831 259.5,196C 248.596,197.629 239.763,194.129 233,185.5C 230.592,181.034 231.425,177.367 235.5,174.5 Z"/></g>
<g><path style="opacity:1" fill="#fefdfe" d="M 185.5,182.5 C 186.685,187.768 190.019,190.102 195.5,189.5C 204.318,196.632 205.818,205.299 200,215.5C 190.707,225.704 179.207,229.537 165.5,227C 151.268,223.129 144.434,213.962 145,199.5C 148.31,190.193 154.81,184.36 164.5,182C 171.55,181.24 178.55,181.407 185.5,182.5 Z"/></g>
<g><path style="opacity:1" fill="#fefdfe" d="M 325.5,181.5 C 336.103,179.847 345.77,182.014 354.5,188C 365.516,199.911 364.849,211.245 352.5,222C 335.577,231.191 320.41,229.024 307,215.5C 301.029,204.573 302.863,195.24 312.5,187.5C 319.477,191.178 323.81,189.178 325.5,181.5 Z"/></g>
<g><path style="opacity:1" fill="#7f7acd" d="M 337.5,297.5 C 291.279,316.541 243.945,319.708 195.5,307C 188.025,304.454 180.692,301.621 173.5,298.5C 177.82,292.18 183.153,286.847 189.5,282.5C 233.303,298.276 277.136,298.276 321,282.5C 327.249,286.578 332.749,291.578 337.5,297.5 Z"/></g>
<g><path style="opacity:1" fill="#a68bd5" d="M 337.5,297.5 C 344.612,306.391 349.612,316.391 352.5,327.5C 352.5,328.833 352.5,330.167 352.5,331.5C 287.833,331.5 223.167,331.5 158.5,331.5C 158.5,330.167 158.5,328.833 158.5,327.5C 161.157,316.517 166.157,306.85 173.5,298.5C 180.692,301.621 188.025,304.454 195.5,307C 243.945,319.708 291.279,316.541 337.5,297.5 Z"/></g>
<g><path style="opacity:1" fill="#6f5d8f" d="M 158.5,327.5 C 158.5,328.833 158.5,330.167 158.5,331.5C 223.167,331.5 287.833,331.5 352.5,331.5C 352.5,330.167 352.5,328.833 352.5,327.5C 353.451,328.919 353.784,330.585 353.5,332.5C 288.167,332.5 222.833,332.5 157.5,332.5C 157.216,330.585 157.549,328.919 158.5,327.5 Z"/></g>
<g><path style="opacity:1" fill="#e9c95e" d="M 168.5,347.5 C 160.655,387.067 163.822,425.734 178,463.5C 183.342,475.535 190.175,486.535 198.5,496.5C 154.499,496.667 110.499,496.5 66.5,496C 46.1109,491.278 33.2776,478.778 28,458.5C 27.3333,433.833 27.3333,409.167 28,384.5C 33.5,365.667 45.6667,353.5 64.5,348C 99.1651,347.5 133.832,347.333 168.5,347.5 Z"/></g>
<g><path style="opacity:1" fill="#f4e971" d="M 168.5,347.5 C 260.501,347.333 352.501,347.5 444.5,348C 464.457,352.623 477.29,364.789 483,384.5C 483.667,409.167 483.667,433.833 483,458.5C 480.358,470.967 473.858,480.8 463.5,488C 450.829,495.171 437.162,498.171 422.5,497C 419.72,498.913 418.053,501.413 417.5,504.5C 410.833,504.5 404.167,504.5 397.5,504.5C 397.518,500.363 395.518,497.863 391.5,497C 327.168,496.5 262.834,496.333 198.5,496.5C 190.175,486.535 183.342,475.535 178,463.5C 163.822,425.734 160.655,387.067 168.5,347.5 Z"/></g>
<g><path style="opacity:1" fill="#040201" d="M 109.5,377.5 C 116.799,376.489 123.466,377.989 129.5,382C 138.333,390.833 147.167,399.667 156,408.5C 161.232,416.053 161.898,424.053 158,432.5C 147.833,442.667 137.667,452.833 127.5,463C 119.833,467.667 112.167,467.667 104.5,463C 94.6667,453.167 84.8333,443.333 75,433.5C 70.3396,425.796 70.3396,418.129 75,410.5C 86.0924,398.904 97.5924,387.904 109.5,377.5 Z"/></g>
<g><path style="opacity:1" fill="#db5b6c" d="M 113.5,392.5 C 115.527,392.338 117.527,392.505 119.5,393C 128,401.5 136.5,410 145,418.5C 145.667,420.5 145.667,422.5 145,424.5C 136.167,433.333 127.333,442.167 118.5,451C 116.833,451.667 115.167,451.667 113.5,451C 104.667,442.167 95.8333,433.333 87,424.5C 86.3333,422.833 86.3333,421.167 87,419.5C 96.0356,410.632 104.869,401.632 113.5,392.5 Z"/></g>
<g><path style="opacity:1" fill="#030301" d="M 208.5,392.5 C 278.167,392.333 347.834,392.5 417.5,393C 421.212,395.513 422.378,399.013 421,403.5C 419.786,405.049 418.286,406.215 416.5,407C 347.167,407.667 277.833,407.667 208.5,407C 203.235,402.076 203.235,397.242 208.5,392.5 Z"/></g>
<g><path style="opacity:1" fill="#050502" d="M 208.5,436.5 C 233.169,436.333 257.836,436.5 282.5,437C 286.212,439.513 287.378,443.013 286,447.5C 284.786,449.049 283.286,450.215 281.5,451C 257.5,451.667 233.5,451.667 209.5,451C 204.311,448.087 203.144,443.92 206,438.5C 206.995,437.934 207.828,437.267 208.5,436.5 Z"/></g>
</svg>
