<?xml version="1.0" encoding="UTF-8"?>
<!DOCTYPE svg PUBLIC "-//W3C//DTD SVG 1.1//EN" "http://www.w3.org/Graphics/SVG/1.1/DTD/svg11.dtd">
<svg xmlns="http://www.w3.org/2000/svg" version="1.1" width="512px" height="512px" style="shape-rendering:geometricPrecision; text-rendering:geometricPrecision; image-rendering:optimizeQuality; fill-rule:evenodd; clip-rule:evenodd" xmlns:xlink="http://www.w3.org/1999/xlink">
<g><path style="opacity:0.96" fill="#020101" d="M 277.5,-0.5 C 284.167,-0.5 290.833,-0.5 297.5,-0.5C 311.106,2.5852 321.94,9.91853 330,21.5C 346.009,59.534 362.009,97.534 378,135.5C 380.833,138.333 383.667,141.167 386.5,144C 421.489,162.826 456.156,182.16 490.5,202C 507.998,218.83 512.498,238.663 504,261.5C 500.018,269.489 494.518,276.323 487.5,282C 467.687,298.312 448.02,314.812 428.5,331.5C 439.555,353.034 452.388,373.368 467,392.5C 480.285,402.444 490.618,414.777 498,429.5C 505.858,452.591 500.025,471.424 480.5,486C 450.641,504.59 418.308,510.59 383.5,504C 376.689,502.674 370.022,500.841 363.5,498.5C 356.07,504.714 347.736,509.047 338.5,511.5C 331.833,511.5 325.167,511.5 318.5,511.5C 312.328,509.712 306.328,507.212 300.5,504C 268.802,483.819 236.802,464.152 204.5,445C 198.235,443.516 191.902,443.182 185.5,444C 149.891,448.743 114.225,452.909 78.5,456.5C 55.8365,456.008 40.0032,445.341 31,424.5C 26.8729,413.612 26.5395,402.612 30,391.5C 39.4521,355.693 47.9521,319.693 55.5,283.5C 55.4716,279.764 54.9716,276.097 54,272.5C 49.3333,262.5 44.6667,252.5 40,242.5C 38.7549,238.235 39.9215,234.902 43.5,232.5C 46.9297,232.107 50.0964,232.773 53,234.5C 60.3801,247.591 66.3801,261.257 71,275.5C 71.6667,280.833 71.6667,286.167 71,291.5C 61.6847,327.428 52.6847,363.428 44,399.5C 41.9112,423.571 52.7445,437.571 76.5,441.5C 109.066,438.221 141.4,434.221 173.5,429.5C 192.611,424.824 210.277,427.991 226.5,439C 253.5,456 280.5,473 307.5,490C 324.74,500.059 340.573,498.226 355,484.5C 356.667,481.833 358.333,479.167 360,476.5C 362.638,467.641 364.638,458.641 366,449.5C 368.735,443.878 372.901,442.378 378.5,445C 380.227,447.904 380.893,451.07 380.5,454.5C 378.735,464.624 376.068,474.624 372.5,484.5C 378.916,487.021 385.583,488.854 392.5,490C 419.062,493.407 444.062,488.741 467.5,476C 478.669,469.499 485.002,459.832 486.5,447C 486.28,441.26 484.614,436.093 481.5,431.5C 479.593,428.025 477.426,424.691 475,421.5C 463.257,411.759 452.924,400.759 444,388.5C 431.9,369.459 420.733,349.959 410.5,330C 410.439,327.739 411.106,325.739 412.5,324C 433.833,306.333 455.167,288.667 476.5,271C 494.809,255.313 497.309,237.48 484,217.5C 480.833,215 477.667,212.5 474.5,210C 445.167,194 415.833,178 386.5,162C 373.364,155.917 364.198,146.083 359,132.5C 345.244,97.5569 330.91,62.8903 316,28.5C 303.127,14.4373 287.96,11.2706 270.5,19C 241.898,44.2653 213.898,70.2653 186.5,97C 179.102,102.865 170.768,106.865 161.5,109C 141.782,110.248 122.116,111.748 102.5,113.5C 83.1139,114.405 63.7806,115.905 44.5,118C 25.569,124.349 17.069,137.516 19,157.5C 25.2283,174.626 32.5617,191.293 41,207.5C 42.4066,212.357 41.24,216.357 37.5,219.5C 33.713,220.186 30.5463,219.186 28,216.5C 21,201.833 14,187.167 7,172.5C -3.01628,142.048 6.15038,119.548 34.5,105C 38.7232,103.528 43.0566,102.528 47.5,102C 84.1667,99.3333 120.833,96.6667 157.5,94C 165.273,92.7804 171.939,89.447 177.5,84C 204.898,57.2653 232.898,31.2653 261.5,6C 266.744,3.31502 272.077,1.14836 277.5,-0.5 Z"/></g>
<g><path style="opacity:1" fill="#f7ed7f" d="M 481.5,431.5 C 469.68,442.579 455.68,449.745 439.5,453C 422.429,456.963 405.262,457.463 388,454.5C 385.41,454.376 383.077,455.042 381,456.5C 380.536,455.906 380.369,455.239 380.5,454.5C 380.893,451.07 380.227,447.904 378.5,445C 372.901,442.378 368.735,443.878 366,449.5C 364.638,458.641 362.638,467.641 360,476.5C 358.333,479.167 356.667,481.833 355,484.5C 340.573,498.226 324.74,500.059 307.5,490C 280.5,473 253.5,456 226.5,439C 210.277,427.991 192.611,424.824 173.5,429.5C 172.022,429.762 170.689,429.429 169.5,428.5C 136.193,372.517 114.693,312.183 105,247.5C 97.5233,202.932 96.69,158.265 102.5,113.5C 122.116,111.748 141.782,110.248 161.5,109C 170.768,106.865 179.102,102.865 186.5,97C 213.898,70.2653 241.898,44.2653 270.5,19C 287.96,11.2706 303.127,14.4373 316,28.5C 330.91,62.8903 345.244,97.5569 359,132.5C 364.198,146.083 373.364,155.917 386.5,162C 415.833,178 445.167,194 474.5,210C 477.667,212.5 480.833,215 484,217.5C 497.309,237.48 494.809,255.313 476.5,271C 455.167,288.667 433.833,306.333 412.5,324C 411.106,325.739 410.439,327.739 410.5,330C 420.733,349.959 431.9,369.459 444,388.5C 452.924,400.759 463.257,411.759 475,421.5C 477.426,424.691 479.593,428.025 481.5,431.5 Z"/></g>
<g><path style="opacity:1" fill="#f6cf70" d="M 102.5,113.5 C 96.69,158.265 97.5233,202.932 105,247.5C 114.693,312.183 136.193,372.517 169.5,428.5C 170.689,429.429 172.022,429.762 173.5,429.5C 141.4,434.221 109.066,438.221 76.5,441.5C 52.7445,437.571 41.9112,423.571 44,399.5C 52.6847,363.428 61.6847,327.428 71,291.5C 71.6667,286.167 71.6667,280.833 71,275.5C 66.3801,261.257 60.3801,247.591 53,234.5C 50.0964,232.773 46.9297,232.107 43.5,232.5C 41.7737,228.047 39.7737,223.714 37.5,219.5C 41.24,216.357 42.4066,212.357 41,207.5C 32.5617,191.293 25.2283,174.626 19,157.5C 17.069,137.516 25.569,124.349 44.5,118C 63.7806,115.905 83.1139,114.405 102.5,113.5 Z"/></g>
<g><path style="opacity:1" fill="#0a0805" d="M 199.5,193.5 C 194.728,196.677 190.561,196.01 187,191.5C 186.502,188.183 186.335,184.85 186.5,181.5C 187.272,177.373 188.939,173.54 191.5,170C 197.907,167.204 201.907,169.204 203.5,176C 202.395,181.929 201.061,187.762 199.5,193.5 Z"/></g>
<g><path style="opacity:1" fill="#fea0aa" d="M 186.5,181.5 C 186.335,184.85 186.502,188.183 187,191.5C 190.561,196.01 194.728,196.677 199.5,193.5C 205.037,204.612 202.704,213.779 192.5,221C 175.532,229.186 160.698,226.352 148,212.5C 139.808,194.711 145.308,183.211 164.5,178C 172.202,176.959 179.536,178.126 186.5,181.5 Z"/></g>
<g><path style="opacity:1" fill="#080704" d="M 324.5,209.5 C 324.073,216.428 320.406,219.595 313.5,219C 311.313,217.975 309.646,216.475 308.5,214.5C 308.878,209.106 309.712,203.773 311,198.5C 314.846,191.534 319.513,190.867 325,196.5C 325.415,200.848 325.249,205.181 324.5,209.5 Z"/></g>
<g><path style="opacity:1" fill="#060503" d="M 221.5,194.5 C 224.649,194.211 227.649,194.711 230.5,196C 231.949,200.059 233.116,204.226 234,208.5C 240.521,213.085 244.854,211.418 247,203.5C 252.034,198.171 256.701,198.504 261,204.5C 259.469,213.295 262.969,217.128 271.5,216C 273.409,212.399 275.742,209.066 278.5,206C 288.039,205.213 291.205,209.379 288,218.5C 282.363,229.233 273.53,233.4 261.5,231C 257.116,229.271 253.283,226.771 250,223.5C 237.506,228.924 227.506,225.924 220,214.5C 216.16,207.34 216.66,200.673 221.5,194.5 Z"/></g>
<g><path style="opacity:1" fill="#fea0aa" d="M 324.5,209.5 C 336.019,208.728 345.853,212.394 354,220.5C 362.483,232.496 360.983,242.996 349.5,252C 332.495,260.271 317.662,257.438 305,243.5C 298.211,232.815 299.377,223.148 308.5,214.5C 309.646,216.475 311.313,217.975 313.5,219C 320.406,219.595 324.073,216.428 324.5,209.5 Z"/></g>
<g><path style="opacity:1" fill="#f6ce70" d="M 481.5,431.5 C 484.614,436.093 486.28,441.26 486.5,447C 485.002,459.832 478.669,469.499 467.5,476C 444.062,488.741 419.062,493.407 392.5,490C 385.583,488.854 378.916,487.021 372.5,484.5C 376.068,474.624 378.735,464.624 380.5,454.5C 380.369,455.239 380.536,455.906 381,456.5C 383.077,455.042 385.41,454.376 388,454.5C 405.262,457.463 422.429,456.963 439.5,453C 455.68,449.745 469.68,442.579 481.5,431.5 Z"/></g>
</svg>
