<?xml version="1.0" encoding="UTF-8"?>
<!DOCTYPE svg PUBLIC "-//W3C//DTD SVG 1.1//EN" "http://www.w3.org/Graphics/SVG/1.1/DTD/svg11.dtd">
<svg xmlns="http://www.w3.org/2000/svg" version="1.1" width="512px" height="512px" style="shape-rendering:geometricPrecision; text-rendering:geometricPrecision; image-rendering:optimizeQuality; fill-rule:evenodd; clip-rule:evenodd" xmlns:xlink="http://www.w3.org/1999/xlink">
<g><path style="opacity:0.977" fill="#020202" d="M 511.5,327.5 C 511.5,335.167 511.5,342.833 511.5,350.5C 509.52,356.921 507.02,363.254 504,369.5C 497,379.833 490,390.167 483,400.5C 481.985,410.809 481.319,421.143 481,431.5C 479.59,434.789 477.09,436.456 473.5,436.5C 470.958,435.961 468.792,434.628 467,432.5C 466.333,420.5 466.333,408.5 467,396.5C 476.165,383.508 484.831,370.174 493,356.5C 501.029,332.922 494.862,314.088 474.5,300C 459.833,294.333 445.167,288.667 430.5,283C 421.619,272.454 413.119,261.62 405,250.5C 388.373,234.324 369.54,231.158 348.5,241C 343.748,243.748 339.581,247.248 336,251.5C 328.196,262.271 320.029,272.771 311.5,283C 298.833,287.667 286.167,292.333 273.5,297C 248.551,309.835 240.384,329.669 249,356.5C 257.417,370.336 266.084,384.002 275,397.5C 275.333,410.833 275.667,424.167 276,437.5C 278.938,458.772 290.771,472.272 311.5,478C 317.167,478.667 322.833,478.667 328.5,478C 342.42,473.86 356.42,470.026 370.5,466.5C 384.494,470.332 398.494,474.165 412.5,478C 432.526,480.482 448.193,473.482 459.5,457C 462.896,455.57 466.229,455.07 469.5,455.5C 472.143,458.34 472.976,461.673 472,465.5C 457.104,487.81 436.27,496.977 409.5,493C 396.612,489.704 383.778,486.204 371,482.5C 354.616,487.741 337.949,491.741 321,494.5C 290.58,492.145 270.913,476.479 262,447.5C 260.711,431.86 259.711,416.193 259,400.5C 252.043,390.754 245.21,380.921 238.5,371C 206.294,376.94 175.128,373.44 145,360.5C 137.283,368.21 128.449,374.376 118.5,379C 87.2332,389.244 62.0666,381.077 43,354.5C 39.0142,346.877 36.0142,338.877 34,330.5C 26.3333,316.5 18.6667,302.5 11,288.5C 5.43334,275.878 1.6,262.878 -0.5,249.5C -0.5,239.5 -0.5,229.5 -0.5,219.5C 5.70633,184.461 24.7063,158.961 56.5,143C 69.4499,119.717 87.4499,101.383 110.5,88C 115.889,79.389 121.889,71.2224 128.5,63.5C 131.982,60.9134 135.315,60.9134 138.5,63.5C 141.036,66.0072 141.869,69.0072 141,72.5C 134.097,80.6391 127.93,89.3058 122.5,98.5C 99.088,111.412 81.2547,129.745 69,153.5C 25.6479,174.87 8.31453,209.537 17,257.5C 19.0531,265.716 21.7198,273.716 25,281.5C 32.6667,295.5 40.3333,309.5 48,323.5C 50.4072,331.721 53.4072,339.721 57,347.5C 74.0265,369.074 94.8598,373.574 119.5,361C 126.429,356.075 132.762,350.408 138.5,344C 139.873,343.125 141.373,342.625 143,342.5C 159.04,351.234 176.207,356.234 194.5,357.5C 197.817,358.165 201.317,358.499 205,358.5C 214.18,357.956 223.347,357.29 232.5,356.5C 231.117,348.903 230.45,341.236 230.5,333.5C 219.925,335.236 209.258,335.902 198.5,335.5C 174.702,333.848 153.869,325.181 136,309.5C 128.619,322.213 119.119,333.046 107.5,342C 95.2265,348.291 84.7265,346.125 76,335.5C 73.6685,328.845 71.3351,322.178 69,315.5C 61,300.833 53,286.167 45,271.5C 37.3737,253.725 35.3737,235.392 39,216.5C 46.3433,193.824 61.5099,179.324 84.5,173C 95.299,147.2 113.299,128.2 138.5,116C 160.351,74.0666 195.018,53.7332 242.5,55C 259.008,55.9581 274.341,60.6247 288.5,69C 295.872,73.8788 300.206,80.7121 301.5,89.5C 337.918,109.453 356.918,140.286 358.5,182C 358.286,188.844 357.953,195.678 357.5,202.5C 355.881,209.053 354.214,215.72 352.5,222.5C 360.388,220.84 368.388,220.173 376.5,220.5C 377.373,214.802 378.373,209.136 379.5,203.5C 385.86,155.423 370.86,115.59 334.5,84C 330.167,81 325.833,78 321.5,75C 314.106,60.2765 302.773,49.6098 287.5,43C 243.956,25.8603 202.289,29.527 162.5,54C 160.833,54.6667 159.167,54.6667 157.5,54C 156.529,52.5187 155.196,51.6854 153.5,51.5C 151.998,47.8407 152.332,44.3407 154.5,41C 199.162,13.7695 245.828,9.76952 294.5,29C 311.168,36.3409 324.002,47.8409 333,63.5C 378.404,95.9856 399.404,140.319 396,196.5C 395.381,205.334 393.881,214 391.5,222.5C 398.166,225.831 404.499,229.664 410.5,234C 420.546,245.711 430.213,257.711 439.5,270C 452.167,274.667 464.833,279.333 477.5,284C 495.42,293.413 506.754,307.913 511.5,327.5 Z"/></g>
<g><path style="opacity:1" fill="#d1d2d2" d="M 379.5,203.5 C 372.025,202.719 364.692,202.386 357.5,202.5C 357.953,195.678 358.286,188.844 358.5,182C 356.918,140.286 337.918,109.453 301.5,89.5C 300.206,80.7121 295.872,73.8788 288.5,69C 274.341,60.6247 259.008,55.9581 242.5,55C 195.018,53.7332 160.351,74.0666 138.5,116C 113.299,128.2 95.299,147.2 84.5,173C 61.5099,179.324 46.3433,193.824 39,216.5C 35.3737,235.392 37.3737,253.725 45,271.5C 53,286.167 61,300.833 69,315.5C 71.3351,322.178 73.6685,328.845 76,335.5C 84.7265,346.125 95.2265,348.291 107.5,342C 119.119,333.046 128.619,322.213 136,309.5C 153.869,325.181 174.702,333.848 198.5,335.5C 203.305,336.487 208.305,336.821 213.5,336.5C 213.502,343.52 213.835,350.52 214.5,357.5C 207.833,357.5 201.167,357.5 194.5,357.5C 176.207,356.234 159.04,351.234 143,342.5C 141.373,342.625 139.873,343.125 138.5,344C 132.762,350.408 126.429,356.075 119.5,361C 94.8598,373.574 74.0265,369.074 57,347.5C 53.4072,339.721 50.4072,331.721 48,323.5C 40.3333,309.5 32.6667,295.5 25,281.5C 21.7198,273.716 19.0531,265.716 17,257.5C 8.31453,209.537 25.6479,174.87 69,153.5C 81.2547,129.745 99.088,111.412 122.5,98.5C 127.93,89.3058 134.097,80.6391 141,72.5C 141.869,69.0072 141.036,66.0072 138.5,63.5C 142.942,58.7164 147.942,54.7164 153.5,51.5C 155.196,51.6854 156.529,52.5187 157.5,54C 159.167,54.6667 160.833,54.6667 162.5,54C 202.289,29.527 243.956,25.8603 287.5,43C 302.773,49.6098 314.106,60.2765 321.5,75C 325.833,78 330.167,81 334.5,84C 370.86,115.59 385.86,155.423 379.5,203.5 Z"/></g>
<g><path style="opacity:1" fill="#555d74" d="M 224.5,69.5 C 246.223,67.4181 266.056,72.4181 284,84.5C 286,87.1667 286,89.8333 284,92.5C 269.2,102.316 253.367,110.15 236.5,116C 216.847,123.218 196.847,129.218 176.5,134C 167.596,135.904 161.429,141.071 158,149.5C 150.929,179.711 141.263,209.045 129,237.5C 124.92,245.329 120.587,252.996 116,260.5C 113.757,262.282 111.257,262.782 108.5,262C 100.783,252.541 95.95,241.707 94,229.5C 88.6948,195.414 98.5281,166.581 123.5,143C 132.58,136.709 141.747,130.543 151,124.5C 165.678,92.9829 190.178,74.6495 224.5,69.5 Z"/></g>
<g><path style="opacity:1" fill="#c89a7f" d="M 340.5,209.5 C 332.881,212.617 325.881,216.783 319.5,222C 309.45,232.781 300.117,244.114 291.5,256C 280.423,259.803 269.423,263.803 258.5,268C 235.751,278.696 221.417,296.196 215.5,320.5C 175.297,322.904 145.297,306.737 125.5,272C 135.603,257.965 143.77,242.798 150,226.5C 158.988,201.538 167.154,176.372 174.5,151C 198.067,144.478 221.4,137.145 244.5,129C 261.833,122.501 278.166,114.167 293.5,104C 299.049,104.938 304.049,107.272 308.5,111C 339.261,137.12 349.928,169.954 340.5,209.5 Z"/></g>
<g><path style="opacity:1" fill="#f0bcc3" d="M 284.5,156.5 C 294.784,158.219 298.118,154.219 294.5,144.5C 303.047,138.506 312.381,137.006 322.5,140C 333.294,146.103 337.127,155.27 334,167.5C 325.389,189.725 309.889,197.225 287.5,190C 280.286,182.992 277.786,174.492 280,164.5C 280.754,161.316 282.254,158.649 284.5,156.5 Z"/></g>
<g><path style="opacity:1" fill="#070504" d="M 294.5,144.5 C 298.118,154.219 294.784,158.219 284.5,156.5C 281.393,152.985 277.893,152.652 274,155.5C 271.705,159.692 272.372,163.359 276,166.5C 277.326,174.171 274.159,177.671 266.5,177C 259.152,171.3 256.319,163.8 258,154.5C 266.243,137.256 278.41,133.923 294.5,144.5 Z"/></g>
<g><path style="opacity:1" fill="#060403" d="M 240.5,188.5 C 250.093,189.106 253.26,194.106 250,203.5C 244.739,222.374 232.572,229.874 213.5,226C 210.226,220.631 211.226,216.298 216.5,213C 230.431,212.733 237.265,205.567 237,191.5C 238.145,190.364 239.312,189.364 240.5,188.5 Z"/></g>
<g><path style="opacity:1" fill="#3f4555" d="M 78.5,190.5 C 75.6994,211.464 77.8661,232.131 85,252.5C 87.9762,260.962 92.8095,268.129 99.5,274C 103.474,276.544 107.807,278.044 112.5,278.5C 115.88,285.435 119.88,291.935 124.5,298C 118.424,312.402 108.59,323.236 95,330.5C 92.3333,330.833 90.3333,329.833 89,327.5C 86.7304,320.025 84.0637,312.691 81,305.5C 72.9318,291.753 65.2651,277.753 58,263.5C 52.7285,250.219 51.0619,236.552 53,222.5C 57.3418,208.345 65.8418,197.678 78.5,190.5 Z"/></g>
<g><path style="opacity:1" fill="#919395" d="M 357.5,202.5 C 364.692,202.386 372.025,202.719 379.5,203.5C 378.373,209.136 377.373,214.802 376.5,220.5C 368.388,220.173 360.388,220.84 352.5,222.5C 354.214,215.72 355.881,209.053 357.5,202.5 Z"/></g>
<g><path style="opacity:1" fill="#b3826a" d="M 340.5,209.5 C 338.09,218.893 334.59,227.893 330,236.5C 320.5,248 311,259.5 301.5,271C 287.947,275.444 274.614,280.444 261.5,286C 249.142,293.191 240.142,303.358 234.5,316.5C 228.381,318.725 222.048,320.059 215.5,320.5C 221.417,296.196 235.751,278.696 258.5,268C 269.423,263.803 280.423,259.803 291.5,256C 300.117,244.114 309.45,232.781 319.5,222C 325.881,216.783 332.881,212.617 340.5,209.5 Z"/></g>
<g><path style="opacity:1" fill="#f7eeb5" d="M 473.5,436.5 C 473.188,443.059 471.855,449.393 469.5,455.5C 466.229,455.07 462.896,455.57 459.5,457C 448.193,473.482 432.526,480.482 412.5,478C 398.494,474.165 384.494,470.332 370.5,466.5C 356.42,470.026 342.42,473.86 328.5,478C 322.833,478.667 317.167,478.667 311.5,478C 290.771,472.272 278.938,458.772 276,437.5C 275.667,424.167 275.333,410.833 275,397.5C 266.084,384.002 257.417,370.336 249,356.5C 240.384,329.669 248.551,309.835 273.5,297C 286.167,292.333 298.833,287.667 311.5,283C 320.029,272.771 328.196,262.271 336,251.5C 339.581,247.248 343.748,243.748 348.5,241C 369.54,231.158 388.373,234.324 405,250.5C 413.119,261.62 421.619,272.454 430.5,283C 445.167,288.667 459.833,294.333 474.5,300C 494.862,314.088 501.029,332.922 493,356.5C 484.831,370.174 476.165,383.508 467,396.5C 466.333,408.5 466.333,420.5 467,432.5C 468.792,434.628 470.958,435.961 473.5,436.5 Z"/></g>
<g><path style="opacity:1" fill="#070504" d="M 192.5,256.5 C 189.421,261.445 185.087,262.778 179.5,260.5C 175.836,256.668 172.336,252.668 169,248.5C 168.172,244.303 169.672,241.136 173.5,239C 175.971,238.294 178.305,238.627 180.5,240C 184,243.5 187.5,247 191,250.5C 192.128,252.345 192.628,254.345 192.5,256.5 Z"/></g>
<g><path style="opacity:1" fill="#f0bcc3" d="M 192.5,256.5 C 207.681,255.855 215.681,263.022 216.5,278C 215.473,293.371 207.806,304.037 193.5,310C 178.379,315.68 167.879,311.18 162,296.5C 160.084,280.667 165.917,268.667 179.5,260.5C 185.087,262.778 189.421,261.445 192.5,256.5 Z"/></g>
<g><path style="opacity:1" fill="#050502" d="M 365.5,257.5 C 372.393,256.655 378.727,258.155 384.5,262C 395.287,275.075 405.953,288.242 416.5,301.5C 432.359,307.925 448.359,314.092 464.5,320C 474.777,328.484 476.943,338.651 471,350.5C 462.085,363.328 453.419,376.328 445,389.5C 444.096,404.823 443.429,420.156 443,435.5C 440.235,450.137 431.401,456.97 416.5,456C 401.239,451.518 385.905,447.352 370.5,443.5C 355.313,446.951 340.313,451.117 325.5,456C 311.342,457.346 302.509,451.179 299,437.5C 298.28,421.502 297.613,405.502 297,389.5C 287.273,375.436 277.94,361.103 269,346.5C 265.606,335.683 268.439,326.849 277.5,320C 293.088,313.804 308.755,307.804 324.5,302C 333.714,291.121 342.547,279.954 351,268.5C 354.906,263.404 359.739,259.738 365.5,257.5 Z"/></g>
<g><path style="opacity:1" fill="#f3de4c" d="M 367.5,272.5 C 371.803,271.796 375.303,273.13 378,276.5C 387.379,288.757 396.879,300.924 406.5,313C 421.484,319.775 436.817,325.775 452.5,331C 457.869,332.578 460.035,336.078 459,341.5C 448.308,356.224 438.641,371.558 430,387.5C 429.089,403.823 428.423,420.156 428,436.5C 425.694,440.81 422.194,442.31 417.5,441C 401.846,436.002 386.013,431.835 370,428.5C 353.552,432.324 337.219,436.657 321,441.5C 317.599,441.302 315.266,439.635 314,436.5C 313.498,419.121 312.498,401.788 311,384.5C 302.249,370.662 293.249,356.995 284,343.5C 281.045,337.739 282.545,333.573 288.5,331C 303.167,325.667 317.833,320.333 332.5,315C 344.726,301.276 356.393,287.109 367.5,272.5 Z"/></g>
<g><path style="opacity:1" fill="#8f9092" d="M 194.5,357.5 C 201.167,357.5 207.833,357.5 214.5,357.5C 213.835,350.52 213.502,343.52 213.5,336.5C 208.305,336.821 203.305,336.487 198.5,335.5C 209.258,335.902 219.925,335.236 230.5,333.5C 230.45,341.236 231.117,348.903 232.5,356.5C 223.347,357.29 214.18,357.956 205,358.5C 201.317,358.499 197.817,358.165 194.5,357.5 Z"/></g>
</svg>
