<?xml version="1.0" encoding="UTF-8"?>
<!DOCTYPE svg PUBLIC "-//W3C//DTD SVG 1.1//EN" "http://www.w3.org/Graphics/SVG/1.1/DTD/svg11.dtd">
<svg xmlns="http://www.w3.org/2000/svg" version="1.1" width="512px" height="512px" style="shape-rendering:geometricPrecision; text-rendering:geometricPrecision; image-rendering:optimizeQuality; fill-rule:evenodd; clip-rule:evenodd" xmlns:xlink="http://www.w3.org/1999/xlink">
<g><path style="opacity:0.983" fill="#030202" d="M 511.5,130.5 C 511.5,163.167 511.5,195.833 511.5,228.5C 509.628,230.604 507.295,231.937 504.5,232.5C 500.756,232.046 498.256,230.046 497,226.5C 496.971,194.119 496.304,161.786 495,129.5C 489.519,111.664 477.686,100.498 459.5,96C 380.498,95.1667 301.498,95.3334 222.5,96.5C 217.377,124.776 201.711,144.61 175.5,156C 174.167,160.333 174.167,164.667 175.5,169C 207.296,185.086 221.462,210.92 218,246.5C 210.833,279 191,298.833 158.5,306C 127.404,309.429 103.237,298.262 86,272.5C 68.1074,238.566 72.6074,208.066 99.5,181C 105.576,176.21 112.076,172.043 119,168.5C 119.796,164.245 119.629,160.079 118.5,156C 91.6838,144.522 76.3505,124.356 72.5,95.5C 44.5933,92.1882 25.76,103.521 16,129.5C 14.6814,191.122 14.0148,252.789 14,314.5C 12.646,318.076 10.146,320.076 6.5,320.5C 3.66895,319.921 1.33561,318.588 -0.5,316.5C -0.5,254.5 -0.5,192.5 -0.5,130.5C 9.75786,95.4833 33.4245,78.15 70.5,78.5C 75.7825,43.3865 95.4492,20.8865 129.5,11C 165.969,4.49526 194.135,16.6619 214,47.5C 219.495,57.4839 222.662,68.1506 223.5,79.5C 303.527,79.0201 383.527,79.5201 463.5,81C 489.566,87.897 505.566,104.397 511.5,130.5 Z"/></g>
<g><path style="opacity:1" fill="#fa5859" d="M 137.5,24.5 C 172.621,22.6345 195.787,38.3012 207,71.5C 211.572,107.896 196.739,132.396 162.5,145C 129.882,150.608 106.049,138.774 91,109.5C 79.5523,73.574 90.3856,46.7407 123.5,29C 128.254,27.3583 132.921,25.8583 137.5,24.5 Z"/></g>
<g><path style="opacity:1" fill="#dededf" d="M 504.5,232.5 C 504.5,237.167 504.5,241.833 504.5,246.5C 501.246,247.043 498.746,248.71 497,251.5C 496.667,300.833 496.333,350.167 496,399.5C 491.846,422.32 478.346,435.82 455.5,440C 320.132,440.992 184.799,440.658 49.5,439C 30.2344,432.647 18.7344,419.48 15,399.5C 14.6667,379.5 14.3333,359.5 14,339.5C 12.1642,336.676 9.66418,335.01 6.5,334.5C 6.5,329.833 6.5,325.167 6.5,320.5C 10.146,320.076 12.646,318.076 14,314.5C 14.0148,252.789 14.6814,191.122 16,129.5C 25.76,103.521 44.5933,92.1882 72.5,95.5C 76.3505,124.356 91.6838,144.522 118.5,156C 119.629,160.079 119.796,164.245 119,168.5C 112.076,172.043 105.576,176.21 99.5,181C 72.6074,208.066 68.1074,238.566 86,272.5C 103.237,298.262 127.404,309.429 158.5,306C 191,298.833 210.833,279 218,246.5C 221.462,210.92 207.296,185.086 175.5,169C 174.167,164.667 174.167,160.333 175.5,156C 201.711,144.61 217.377,124.776 222.5,96.5C 301.498,95.3334 380.498,95.1667 459.5,96C 477.686,100.498 489.519,111.664 495,129.5C 496.304,161.786 496.971,194.119 497,226.5C 498.256,230.046 500.756,232.046 504.5,232.5 Z"/></g>
<g><path style="opacity:1" fill="#050404" d="M 387.5,122.5 C 415.699,121.886 432.865,135.219 439,162.5C 439.541,190.623 426.041,207.456 398.5,213C 378.035,213.852 362.868,205.352 353,187.5C 344.047,163.461 349.881,143.961 370.5,129C 376.02,126.11 381.686,123.943 387.5,122.5 Z"/></g>
<g><path style="opacity:1" fill="#f95859" d="M 387.5,137.5 C 404.315,136.155 416.149,143.155 423,158.5C 426.719,182.115 416.719,195.449 393,198.5C 378.982,197.151 369.649,189.817 365,176.5C 361.664,157.165 369.164,144.165 387.5,137.5 Z"/></g>
<g><path style="opacity:1" fill="#bbbbbc" d="M 156.5,161.5 C 157.5,161.5 158.5,161.5 159.5,161.5C 159.5,168.833 159.5,176.167 159.5,183.5C 151.608,184.625 143.775,184.625 136,183.5C 135.5,197.163 135.333,210.829 135.5,224.5C 134.503,203.34 134.169,182.007 134.5,160.5C 141.791,161.392 149.124,161.726 156.5,161.5 Z"/></g>
<g><path style="opacity:1" fill="#ddddde" d="M 159.5,183.5 C 159.5,196.167 159.5,208.833 159.5,221.5C 158.472,228.693 154.306,232.693 147,233.5C 140.944,233.234 137.111,230.234 135.5,224.5C 135.333,210.829 135.5,197.163 136,183.5C 143.775,184.625 151.608,184.625 159.5,183.5 Z"/></g>
<g><path style="opacity:1" fill="#303030" d="M 156.5,161.5 C 157.568,160.566 158.901,160.232 160.5,160.5C 160.83,181.007 160.497,201.34 159.5,221.5C 159.5,208.833 159.5,196.167 159.5,183.5C 159.5,176.167 159.5,168.833 159.5,161.5C 158.5,161.5 157.5,161.5 156.5,161.5 Z"/></g>
<g><path style="opacity:1" fill="#484958" d="M 118.5,185.5 C 119.331,198.327 119.831,211.327 120,224.5C 125.501,244.833 138.335,252 158.5,246C 166.622,241.875 171.789,235.375 174,226.5C 174.167,212.821 174.667,199.154 175.5,185.5C 202.861,204.424 210.361,229.424 198,260.5C 184.461,283.52 164.295,293.686 137.5,291C 111.323,284.49 95.8227,267.99 91,241.5C 89.2587,217.318 98.4254,198.651 118.5,185.5 Z"/></g>
<g><path style="opacity:1" fill="#040405" d="M 299.5,210.5 C 324.987,209.838 341.82,221.504 350,245.5C 353.326,275.381 340.492,293.881 311.5,301C 289.399,302.536 273.566,293.37 264,273.5C 255.766,248.863 262.6,229.697 284.5,216C 289.434,213.637 294.434,211.804 299.5,210.5 Z"/></g>
<g><path style="opacity:1" fill="#63c4f8" d="M 300.5,225.5 C 325.538,226.033 337.038,238.699 335,263.5C 328.994,280.762 316.827,288.262 298.5,286C 280.899,279.64 273.399,267.14 276,248.5C 280.489,236.842 288.656,229.176 300.5,225.5 Z"/></g>
<g><path style="opacity:0.98" fill="#030303" d="M 504.5,246.5 C 507.295,247.063 509.628,248.396 511.5,250.5C 511.5,317.5 511.5,384.5 511.5,451.5C 505.108,477.741 488.775,494.241 462.5,501C 393.526,502.155 324.526,502.655 255.5,502.5C 186.474,502.655 117.474,502.155 48.5,501C 21.8696,494.537 5.5363,478.037 -0.5,451.5C -0.5,413.833 -0.5,376.167 -0.5,338.5C 1.37183,336.396 3.70516,335.063 6.5,334.5C 9.66418,335.01 12.1642,336.676 14,339.5C 14.3333,359.5 14.6667,379.5 15,399.5C 18.7344,419.48 30.2344,432.647 49.5,439C 184.799,440.658 320.132,440.992 455.5,440C 478.346,435.82 491.846,422.32 496,399.5C 496.333,350.167 496.667,300.833 497,251.5C 498.746,248.71 501.246,247.043 504.5,246.5 Z"/></g>
<g><path style="opacity:1" fill="#0a0a0a" d="M 164.5,340.5 C 168.684,339.704 171.85,341.037 174,344.5C 174.667,352.167 174.667,359.833 174,367.5C 171.091,370.394 167.591,371.227 163.5,370C 161.951,368.786 160.785,367.286 160,365.5C 159.333,358.833 159.333,352.167 160,345.5C 161.025,343.313 162.525,341.646 164.5,340.5 Z"/></g>
<g><path style="opacity:1" fill="#0a0a0a" d="M 340.5,340.5 C 345.28,339.641 348.78,341.308 351,345.5C 351.667,352.167 351.667,358.833 351,365.5C 348.565,370.224 344.731,371.724 339.5,370C 338.667,369.167 337.833,368.333 337,367.5C 336.333,359.833 336.333,352.167 337,344.5C 337.69,342.65 338.856,341.316 340.5,340.5 Z"/></g>
<g><path style="opacity:1" fill="#050505" d="M 230.5,355.5 C 232.857,355.337 235.19,355.503 237.5,356C 249.459,367.328 261.459,367.328 273.5,356C 283.158,354.485 286.325,358.319 283,367.5C 268.72,380.772 252.887,382.938 235.5,374C 232.72,372.188 230.22,370.021 228,367.5C 225.523,362.669 226.356,358.669 230.5,355.5 Z"/></g>
<g><path style="opacity:1" fill="#bdbdbe" d="M 14.5,434.5 C 24.9728,445.239 37.6395,452.072 52.5,455C 187.5,455.667 322.5,455.667 457.5,455C 472.695,452.487 485.529,445.654 496,434.5C 497.128,462.068 484.295,479.235 457.5,486C 322.167,486.667 186.833,486.667 51.5,486C 26.2961,478.096 13.9628,460.929 14.5,434.5 Z"/></g>
</svg>
